<svg width="64" height="64" viewBox="0 0 64 64" fill="none" xmlns="http://www.w3.org/2000/svg">
<rect width="64" height="64" rx="5" fill="#F7F7F7"/>
<path d="M43.875 34.5938L42.7322 33.6876C41.4316 32.6564 40.7812 32.1407 40.7812 31.5C40.7812 30.8593 41.4316 30.3436 42.7322 29.3124L43.875 28.4062M19.125 28.4062L20.2678 29.3124C21.5684 30.3436 22.2188 30.8593 22.2188 31.5C22.2188 32.1407 21.5684 32.6564 20.2678 33.6876L19.125 34.5938" stroke="#0D3896" stroke-width="2" stroke-linecap="round" stroke-linejoin="round"/>
<path d="M35.0362 43.875L35.2512 42.4192C35.496 40.7623 35.6183 39.9339 36.1776 39.6106C36.737 39.2873 37.5148 39.5955 39.0705 40.2117L40.4375 40.7532M27.9638 19.125L27.7488 20.5809C27.504 22.2377 27.3817 23.0661 26.8224 23.3894C26.263 23.7127 25.4852 23.4045 23.9295 22.7883L22.5625 22.2468" stroke="#0D3896" stroke-width="2" stroke-linecap="round" stroke-linejoin="round"/>
<path d="M21.875 40.7562L23.3467 40.2141C25.0216 39.5972 25.859 39.2887 26.4609 39.6117C27.0628 39.9346 27.1941 40.7629 27.4567 42.4194L27.6874 43.875M41.125 22.2438L39.6533 22.7859C37.9784 23.4028 37.141 23.7113 36.5391 23.3883C35.9372 23.0654 35.8059 22.2371 35.5433 20.5806L35.3126 19.125" stroke="#0D3896" stroke-width="2" stroke-linecap="round" stroke-linejoin="round"/>
<path d="M41.125 31.5004H21.875M36.3125 39.7497L26.6875 23.25M36.3125 23.2503L26.6875 39.75" stroke="#0D3896" stroke-width="2" stroke-linejoin="round"/>
</svg>
