<svg width="415" height="118" viewBox="0 0 415 118" fill="none" xmlns="http://www.w3.org/2000/svg">
<path d="M353.378 78.0514H401.901V88.6834H353.378V78.0514ZM398.967 78.0514H401.167L403.159 77.426L410.285 81.8038C407.84 87.3075 404.626 92.1023 400.643 96.1883C396.731 100.274 392.294 103.735 387.334 106.57C382.373 109.405 377.028 111.74 371.299 113.575C365.57 115.409 359.596 116.869 353.378 117.953C352.889 116.285 352.155 114.325 351.177 112.074C350.269 109.822 349.326 108.029 348.348 106.695C353.937 106.028 359.352 105.027 364.592 103.693C369.832 102.276 374.688 100.483 379.159 98.3147C383.701 96.1466 387.648 93.5199 391.002 90.4345C394.425 87.3492 397.08 83.8052 398.967 79.8025V78.0514ZM370.775 87.3075C373.5 90.5596 377.098 93.4782 381.57 96.0632C386.041 98.5649 391.142 100.65 396.871 102.317C402.6 103.902 408.608 105.069 414.896 105.82C413.639 107.154 412.311 108.988 410.914 111.323C409.586 113.742 408.538 115.826 407.77 117.577C401.133 116.493 394.844 114.826 388.906 112.574C383.037 110.323 377.692 107.487 372.871 104.068C368.12 100.566 364.033 96.5219 360.609 91.9355L370.775 87.3075ZM352.016 6.50428H412.905V17.1363H352.016V6.50428ZM363.753 42.2778H407.875V49.7828H363.753V42.2778ZM363.753 53.5352H407.875V60.9151H363.753V53.5352ZM365.116 0H376.33V23.1402H365.116V0ZM380.102 33.6471H391.002V71.9223H380.102V33.6471ZM388.487 0H399.7V23.1402H388.487V0ZM361.657 20.2633L371.509 23.2653C369.692 28.6022 367.352 33.8139 364.487 38.9006C361.623 43.9873 358.653 48.2401 355.579 51.659C355.09 50.9919 354.356 50.158 353.378 49.1574C352.4 48.1567 351.387 47.1977 350.339 46.2805C349.291 45.2798 348.383 44.4876 347.614 43.9039C350.549 40.9853 353.238 37.4413 355.684 33.2719C358.199 29.0191 360.19 24.6829 361.657 20.2633ZM383.142 20.7637L394.565 22.8901C393.517 25.3917 392.469 27.7266 391.421 29.8947C390.373 31.9794 389.43 33.8139 388.591 35.3983L378.95 33.2719C379.718 31.354 380.487 29.2693 381.255 27.0178C382.094 24.6829 382.722 22.5982 383.142 20.7637ZM410.076 29.3943V38.6504H369.518V64.9177H412.591V74.1738H358.618V29.3943H410.076ZM320.156 38.5254H348.033V49.9078H320.156V38.5254ZM320.89 4.12772H347.824V15.3851H320.89V4.12772ZM320.156 55.6616H348.033V66.919H320.156V55.6616ZM315.859 20.8887H350.758V32.7716H315.859V20.8887ZM325.92 72.923H347.929V110.823H325.92V99.0652H337.868V84.6807H325.92V72.923ZM319.842 72.923H329.693V115.951H319.842V72.923Z" fill="#F7F7F7"/>
<path d="M269.017 44.4039H281.593V117.702H269.017V44.4039ZM241.35 60.1643H308.737V73.6732H241.35V60.1643ZM284.004 66.1682C285.96 70.6712 288.406 75.1325 291.34 79.552C294.344 83.9716 297.593 88.0576 301.086 91.8101C304.65 95.5626 308.248 98.6896 311.881 101.191C310.973 102.025 309.925 103.151 308.737 104.568C307.619 105.986 306.536 107.445 305.488 108.946C304.51 110.447 303.672 111.823 302.973 113.074C299.34 109.989 295.742 106.153 292.178 101.567C288.685 96.9802 285.401 92.0186 282.327 86.6817C279.323 81.2615 276.738 75.7579 274.572 70.1709L284.004 66.1682ZM267.236 64.9174L277.087 69.0451C274.851 74.8823 272.126 80.5944 268.913 86.1814C265.699 91.685 262.17 96.73 258.328 101.316C254.485 105.819 250.468 109.655 246.275 112.824C245.647 111.573 244.808 110.197 243.76 108.696C242.782 107.195 241.734 105.778 240.616 104.443C239.568 103.026 238.555 101.817 237.577 100.816C241.629 98.3144 245.542 95.1873 249.315 91.4349C253.088 87.599 256.511 83.4296 259.585 78.9266C262.729 74.3403 265.279 69.6705 267.236 64.9174ZM260.214 18.8871V35.6481H291.026V18.8871H260.214ZM248.371 5.62838H303.706V48.7818H248.371V5.62838ZM234.643 0.5L246.275 5.00296C243.97 12.091 241.21 19.179 237.996 26.267C234.852 33.2716 231.429 39.9426 227.726 46.2801C224.093 52.5342 220.355 58.0379 216.512 62.791C216.163 61.5402 215.604 59.9558 214.835 58.0379C214.067 56.1199 213.228 54.1603 212.32 52.159C211.412 50.1577 210.573 48.5733 209.805 47.4059C213.088 43.57 216.267 39.1504 219.342 34.1471C222.416 29.1439 225.245 23.7653 227.83 18.0115C230.485 12.2577 232.756 6.42057 234.643 0.5ZM224.477 35.0227L236.424 20.7633V20.8884V117.327H224.477V35.0227Z" fill="#F7F7F7"/>
<path d="M140.848 55.2864H167.886V67.0442H140.848V55.2864ZM140.848 76.4253H167.991V88.1831H140.848V76.4253ZM120.621 97.4392H191.362V111.323H120.621V97.4392ZM112.656 32.7716H198.279V117.702H185.493V46.5307H124.813V117.702H112.656V32.7716ZM135.503 41.9026H146.717V103.693H135.503V41.9026ZM162.856 41.9026H174.174V103.568H162.856V41.9026ZM147.45 13.8842L162.227 17.6366C160.97 22.223 159.747 26.8093 158.559 31.3957C157.441 35.8987 156.358 39.7762 155.31 43.0284L143.887 39.401C144.376 36.9827 144.865 34.3143 145.354 31.3957C145.843 28.3937 146.262 25.3917 146.612 22.3898C147.031 19.3044 147.31 16.4692 147.45 13.8842ZM108.359 7.37988H203.1V21.5142H108.359V7.37988Z" fill="#F7F7F7"/>
<path d="M7.96165 8.50551H93.8986V21.2639H7.96165V8.50551ZM12.8873 27.6431H89.8113V39.5259H12.8873V27.6431ZM4.084 46.5305H97.1474V59.2889H4.084V46.5305ZM44.118 0.125H56.799V57.1625H44.118V0.125ZM44.2228 51.1586L55.1221 57.4127C52.2576 60.9984 49.0087 64.459 45.3756 67.7945C41.8124 71.1301 37.9697 74.2571 33.8475 77.1757C29.7253 80.0109 25.4984 82.5959 21.1666 84.9308C16.8348 87.1823 12.503 89.1002 8.17125 90.6846C7.61231 89.5172 6.84377 88.183 5.86562 86.682C4.95735 85.181 3.9792 83.7217 2.93119 82.3041C1.95305 80.8031 1.00984 79.5523 0.101562 78.5516C4.22374 77.2174 8.41578 75.5913 12.6777 73.6734C16.9396 71.7555 21.0268 69.5874 24.9394 67.1691C28.852 64.7509 32.4502 62.2075 35.7339 59.5391C39.0876 56.8707 41.9172 54.0772 44.2228 51.1586ZM62.3534 53.5352C64.17 61.7906 66.7201 69.2955 70.0039 76.05C73.2877 82.8044 77.4797 88.5582 82.58 93.3113C87.6804 97.9811 93.7937 101.525 100.92 103.943C100.012 105.027 99.0338 106.32 97.9858 107.821C96.9378 109.405 95.9596 111.031 95.0514 112.699C94.1431 114.45 93.3745 115.993 92.7457 117.327C84.9905 114.158 78.388 109.739 72.9383 104.068C67.5585 98.3146 63.087 91.4351 59.5238 83.4298C56.0304 75.4246 53.1309 66.3352 50.8253 56.1619L62.3534 53.5352ZM86.4577 61.0401L96.9378 70.4213C94.2828 72.6728 91.5231 74.9242 88.6585 77.1757C85.7939 79.3438 82.9643 81.3868 80.1696 83.3047C77.3749 85.2227 74.7549 86.9321 72.3095 88.4331L64.4494 80.3028C66.7551 78.635 69.2354 76.7171 71.8903 74.549C74.6152 72.3809 77.2352 70.1294 79.7504 67.7945C82.3355 65.4597 84.5713 63.2082 86.4577 61.0401ZM11.2105 103.568C15.4724 102.651 20.3282 101.567 25.7778 100.316C31.2974 98.9817 37.0614 97.5641 43.07 96.0631C49.1485 94.5622 55.1571 93.0195 61.0958 91.4351L62.2486 104.944C56.799 106.445 51.2445 107.946 45.5852 109.447C39.9958 110.948 34.5811 112.366 29.3411 113.7C24.1709 115.034 19.385 116.285 14.9833 117.452L11.2105 103.568ZM25.5682 78.1764L33.8475 68.2949L38.2492 69.6708V105.569H25.5682V78.1764Z" fill="#F7F7F7"/>
</svg>
