<svg width="375" height="119" viewBox="0 0 375 119" fill="none" xmlns="http://www.w3.org/2000/svg">
<path d="M270.303 0H285.577V119H270.303V0ZM259.612 24.459L270.431 25.9798C270.261 29.6127 269.922 33.5836 269.412 37.8924C268.903 42.2013 268.225 46.4256 267.376 50.5655C266.612 54.7054 265.721 58.4228 264.703 61.7178L253.375 57.6624C254.393 54.8743 255.284 51.5371 256.048 47.6507C256.896 43.7643 257.618 39.7934 258.212 35.738C258.891 31.6826 259.357 27.923 259.612 24.459ZM282.65 25.3461L292.96 21.0373C294.742 24.2478 296.439 27.7962 298.051 31.6826C299.663 35.569 300.809 38.864 301.487 41.5676L290.414 46.6368C290.075 44.7781 289.481 42.666 288.632 40.3003C287.783 37.8502 286.85 35.3156 285.832 32.6965C284.814 30.0774 283.753 27.6273 282.65 25.3461ZM306.706 5.82961L321.598 8.11076C320.749 14.3628 319.604 20.5726 318.161 26.7401C316.804 32.8232 315.191 38.5261 313.325 43.8488C311.543 49.087 309.549 53.6915 307.342 57.6624C306.409 56.9865 305.094 56.1839 303.397 55.2545C301.7 54.3252 299.96 53.4803 298.178 52.7199C296.481 51.875 294.996 51.1991 293.723 50.6922C296.014 47.1438 298.008 42.9617 299.706 38.1459C301.403 33.3301 302.803 28.1764 303.906 22.6848C305.094 17.1086 306.027 11.4902 306.706 5.82961ZM311.288 25.7263H370.092V40.0469H306.833L311.288 25.7263ZM328.726 0.76038H343.999V108.862H328.726V0.76038ZM303.906 60.9574H367.292V75.1512H303.906V60.9574ZM294.36 100.497H374.038V115.071H294.36V100.497Z" fill="#F7F7F7"/>
<path d="M155.77 10.8988H242.704V22.3046H155.77V10.8988ZM156.916 27.2471H231.63V38.2726H156.916V27.2471ZM142.278 43.3419H215.847V54.8743H142.278V43.3419ZM133.878 76.5453H209.61V87.951H133.878V76.5453ZM154.625 0L170.917 4.05538C168.626 9.96947 165.868 15.7146 162.643 21.2907C159.504 26.7824 156.067 31.8939 152.334 36.6251C148.685 41.3564 144.909 45.454 141.006 48.918C139.987 47.9042 138.587 46.8058 136.805 45.623C135.023 44.4402 133.199 43.2574 131.332 42.0746C129.55 40.8072 128.023 39.8356 126.75 39.1597C132.775 34.7664 138.248 29.1058 143.169 22.1778C148.091 15.1654 151.909 7.77281 154.625 0ZM211.138 43.3419H226.539C226.539 49.7629 226.581 55.9727 226.666 61.9712C226.836 67.8853 227.09 73.377 227.43 78.4462C227.854 83.5154 228.406 87.951 229.084 91.7529C229.848 95.4704 230.697 98.3852 231.63 100.497C232.648 102.61 233.879 103.666 235.321 103.666C236.255 103.666 236.891 102.06 237.23 98.8498C237.655 95.6393 237.909 91.3305 237.994 85.9233C239.437 87.6976 241.006 89.4718 242.704 91.246C244.485 93.0202 246.183 94.4565 247.795 95.5548C247.201 103.666 245.97 109.537 244.104 113.17C242.322 116.888 239.055 118.747 234.303 118.747C229.127 118.747 225.011 116.761 221.957 112.79C218.902 108.904 216.611 103.497 215.083 96.5687C213.556 89.6407 212.538 81.6567 212.029 72.6166C211.52 63.492 211.223 53.7338 211.138 43.3419ZM141.006 62.8584L152.461 58.2961C154.243 60.4927 155.94 62.9851 157.552 65.7732C159.164 68.4767 160.31 70.8846 160.989 72.9968L148.77 77.9393C148.261 75.8271 147.242 73.377 145.715 70.5889C144.188 67.7164 142.618 65.1395 141.006 62.8584ZM171.299 94.4143L180.717 86.4302C183.857 88.12 187.209 90.1054 190.773 92.3866C194.421 94.5832 197.943 96.7799 201.337 98.9766C204.731 101.173 207.489 103.159 209.61 104.933L199.555 114.058C197.519 112.114 194.888 110.002 191.664 107.721C188.439 105.355 185.045 103.032 181.481 100.751C177.917 98.3852 174.523 96.273 171.299 94.4143ZM165.571 57.4089H179.826V118.747H165.571V57.4089ZM192.427 57.9159L205.919 61.9712C203.713 64.8438 201.507 67.6741 199.3 70.4622C197.094 73.1658 195.1 75.5314 193.318 77.5591L183.645 73.7572C184.663 72.3209 185.724 70.6734 186.827 68.8147C187.93 66.8715 188.991 64.9705 190.009 63.1118C191.027 61.1686 191.833 59.4366 192.427 57.9159ZM162.516 81.4878L173.717 85.7966C171.171 90.0209 168.032 94.1608 164.298 98.2162C160.564 102.187 156.534 105.82 152.206 109.115C147.879 112.41 143.509 115.198 139.096 117.479C138.417 116.296 137.527 114.987 136.423 113.551C135.32 112.199 134.175 110.847 132.987 109.495C131.799 108.143 130.653 107.045 129.55 106.2C133.793 104.595 137.993 102.483 142.151 99.8637C146.309 97.2446 150.17 94.372 153.734 91.246C157.298 88.0355 160.225 84.7828 162.516 81.4878Z" fill="#F7F7F7"/>
<path d="M30.6491 49.4259V96.1894H16.0118V63.493H1.62894V49.4259H30.6491ZM30.6491 90.1064C33.1099 94.3307 36.5889 97.4567 41.0862 99.4844C45.5835 101.428 51.0566 102.526 57.5055 102.779C61.324 102.948 65.9061 103.075 71.252 103.16C76.6826 103.16 82.3255 103.117 88.1804 103.033C94.1202 102.948 99.8903 102.822 105.491 102.653C111.176 102.399 116.267 102.061 120.764 101.639C120.171 102.737 119.534 104.216 118.855 106.074C118.261 107.849 117.667 109.665 117.073 111.524C116.564 113.383 116.182 115.03 115.928 116.466C112.024 116.72 107.527 116.889 102.436 116.973C97.3447 117.058 92.0837 117.1 86.653 117.1C81.2223 117.184 75.9614 117.184 70.8701 117.1C65.7788 117.1 61.2816 117.015 57.3783 116.847C49.7414 116.509 43.25 115.284 37.9042 113.171C32.5584 111.059 27.9762 107.553 24.1578 102.653C21.697 105.187 19.0665 107.68 16.2663 110.13C13.551 112.664 10.5811 115.284 7.35661 117.987L0.101562 102.906C2.8169 101.132 5.65952 99.1465 8.62943 96.9498C11.6842 94.7532 14.6117 92.472 17.4119 90.1064H30.6491ZM2.13807 11.9136L13.7207 3.29593C16.1815 5.15464 18.7271 7.26682 21.3576 9.63246C23.9881 11.9981 26.4064 14.3637 28.6126 16.7294C30.8188 19.095 32.6008 21.3339 33.9585 23.4461L21.3576 33.0776C20.1696 30.9654 18.515 28.6843 16.3936 26.2342C14.3571 23.6996 12.066 21.2072 9.5204 18.7571C6.97477 16.2224 4.51399 13.9413 2.13807 11.9136ZM37.0132 22.8124H118.728V34.0915H37.0132V22.8124ZM46.4321 55.3822H87.544V66.6612H46.4321V55.3822ZM88.0531 65.1404H106.382V75.6591H88.0531V65.1404ZM70.6155 11.0265H85.1256V53.2278H70.6155V11.0265ZM68.0699 28.8955L78.7616 33.0776C75.9614 36.8795 72.5248 40.5125 68.4518 43.9764C64.4636 47.4404 60.136 50.5664 55.469 53.3545C50.8869 56.0581 46.2623 58.2547 41.5954 59.9445C40.5771 58.3392 39.177 56.4805 37.3951 54.3683C35.698 52.1717 34.1282 50.4397 32.6856 49.1724C37.1829 47.9051 41.6802 46.2576 46.1775 44.2299C50.6748 42.1177 54.8326 39.7521 58.6511 37.133C62.4695 34.5139 65.6091 31.7681 68.0699 28.8955ZM87.1622 29.4024C89.5381 32.0215 92.5504 34.5139 96.1991 36.8795C99.9327 39.1607 104.006 41.2306 108.418 43.0893C112.831 44.948 117.201 46.3843 121.528 47.3982C120.086 48.75 118.473 50.5242 116.691 52.7208C114.994 54.9175 113.637 56.8185 112.618 58.4237C108.121 56.903 103.666 54.833 99.2539 52.2139C94.9263 49.5948 90.8533 46.68 87.0349 43.4695C83.3013 40.1745 80.1192 36.7106 77.4887 33.0776L87.1622 29.4024ZM102.309 65.1404H116.31C116.31 65.1404 116.267 65.7318 116.182 66.9147C116.097 68.0975 115.97 69.1113 115.801 69.9562C115.291 77.0531 114.613 82.4603 113.764 86.1777C112.915 89.8107 111.727 92.3875 110.2 93.9083C108.927 95.0911 107.527 95.9782 106 96.5696C104.472 97.0765 102.775 97.4145 100.909 97.5835C99.2963 97.7524 97.0901 97.8369 94.2899 97.8369C91.5746 97.8369 88.6047 97.7947 85.3802 97.7102C85.2954 95.936 84.9135 93.9928 84.2347 91.8806C83.6407 89.7684 82.877 87.9519 81.9436 86.4312C84.5741 86.6002 87.0349 86.7269 89.3259 86.8114C91.7019 86.8959 93.4414 86.9381 94.5445 86.9381C95.4779 86.9381 96.2416 86.8959 96.8356 86.8114C97.5144 86.6424 98.1084 86.3467 98.6175 85.9243C99.466 85.1639 100.187 83.3052 100.781 80.3481C101.375 77.3911 101.884 72.871 102.309 66.7879V65.1404ZM104.854 1.64844L114.146 11.5334C109.309 12.5473 104.048 13.4344 98.3629 14.1948C92.7625 14.8707 86.9076 15.4621 80.7981 15.969C74.7734 16.4759 68.6639 16.8983 62.4695 17.2363C56.36 17.4898 50.4202 17.6165 44.6501 17.6165C44.4804 16.2647 44.0561 14.5749 43.3773 12.5473C42.7833 10.4351 42.1469 8.7031 41.4681 7.35131C47.0685 7.18234 52.7961 6.97112 58.6511 6.71765C64.506 6.37971 70.2337 5.99952 75.8341 5.57708C81.5193 5.07016 86.8227 4.52099 91.7443 3.92958C96.6658 3.25369 101.036 2.49331 104.854 1.64844ZM59.9239 58.5505H73.7976C73.4582 63.6197 72.7793 68.2665 71.7611 72.4908C70.8277 76.7152 69.3003 80.5593 67.1789 84.0233C65.0576 87.4873 62.1301 90.5288 58.3965 93.1479C54.6629 95.767 49.7838 97.9637 43.7591 99.7379C43.0803 98.0481 41.9772 96.1049 40.4498 93.9083C38.9224 91.6271 37.4375 89.8107 35.995 88.4589C41.0014 87.1916 44.9895 85.6285 47.9594 83.7698C51.0142 81.8266 53.3477 79.63 54.9599 77.1798C56.5721 74.7297 57.7177 71.9839 58.3965 68.9424C59.0754 65.8163 59.5845 62.3524 59.9239 58.5505ZM84.1074 55.3822H97.472C96.6234 59.6065 95.6476 64.0421 94.5445 68.6889C93.5262 73.2512 92.5928 77.1798 91.7443 80.4748L78.8889 78.5739C79.9071 75.3634 80.8829 71.646 81.8163 67.4216C82.7497 63.1972 83.5134 59.1841 84.1074 55.3822Z" fill="#F7F7F7"/>
</svg>
