<svg width="64" height="64" viewBox="0 0 64 64" fill="none" xmlns="http://www.w3.org/2000/svg">
<rect width="64" height="64" rx="5" fill="#F7F7F7"/>
<path fill-rule="evenodd" clip-rule="evenodd" d="M45.08 40C43.639 40 40.4993 38.8665 40.5468 38.8665C40.5934 38.8665 37.8474 37.733 36.5803 37.733C35.3242 37.733 31.9997 38.8665 32.0471 38.8665C32.0937 38.8665 29.0609 40 28.0329 40C26.5523 40 23.4997 38.8665 23.5467 38.8665C23.5937 38.8665 20.5569 37.733 19.0135 37.733C16.8541 37.7334 15 38.8665 15 38.8665V37.733C15 37.733 16.8303 36.5995 18.9665 36.5995C20.5099 36.5995 23.4997 37.733 23.4997 37.733C23.4997 37.733 26.5482 38.8665 28.0799 38.8665C29.0877 38.8665 31.9998 37.7335 31.9998 37.7335C31.9998 37.7335 35.2755 36.6 36.533 36.6C37.8181 36.6 40.5935 37.7335 40.5472 37.7335C40.4993 37.7335 43.6038 38.8665 45.0325 38.8665C47.2372 38.8665 48.999 37.733 48.999 37.733V38.8665C48.999 38.8665 47.2626 40 45.08 40ZM45.08 33.2002C43.639 33.2002 40.4993 32.0667 40.5468 32.0667C40.5934 32.0667 37.8474 30.9333 36.5803 30.9333C35.3242 30.9333 31.9997 32.0667 32.0471 32.0667C32.0937 32.0667 29.0609 33.2002 28.0329 33.2002C26.5523 33.2002 23.4997 32.0667 23.5467 32.0667C23.5937 32.0667 20.5569 30.9333 19.0135 30.9333C16.8541 30.9337 15 32.0667 15 32.0667V30.9333C15 30.9333 16.8303 29.7998 18.9665 29.7998C20.5099 29.7998 23.4997 30.9333 23.4997 30.9333C23.4997 30.9333 26.5482 32.0667 28.0799 32.0667C29.0877 32.0667 31.9998 30.9337 31.9998 30.9337C31.9998 30.9337 35.2755 29.8002 36.533 29.8002C37.8181 29.8002 40.5935 30.9337 40.5472 30.9337C40.4993 30.9337 43.6038 32.0667 45.0325 32.0667C47.2372 32.0667 48.999 30.9333 48.999 30.9333V32.0667C48.999 32.0667 47.2626 33.2002 45.08 33.2002ZM45.08 26.4005C43.639 26.4005 40.4993 25.267 40.5468 25.267C40.5934 25.267 37.8474 24.1335 36.5803 24.1335C35.3242 24.1335 31.9997 25.267 32.0471 25.267C32.0937 25.267 29.0609 26.4005 28.0329 26.4005C26.5523 26.4005 23.4997 25.267 23.5467 25.267C23.5937 25.267 20.5569 24.1335 19.0135 24.1335C16.8541 24.1339 15 25.267 15 25.267V24.1335C15 24.1335 16.8303 23 18.9665 23C20.5099 23 23.4997 24.1335 23.4997 24.1335C23.4997 24.1335 26.5482 25.267 28.0799 25.267C29.0877 25.267 31.9998 24.1339 31.9998 24.1339C31.9998 24.1339 35.2755 23.0004 36.533 23.0004C37.8181 23.0004 40.5935 24.1339 40.5472 24.1339C40.4993 24.1339 43.6038 25.267 45.0325 25.267C47.2372 25.267 48.999 24.1335 48.999 24.1335V25.267C48.999 25.267 47.2626 26.4005 45.08 26.4005Z" fill="#0D3896" stroke="#0D3896"/>
</svg>
