<svg width="64" height="64" viewBox="0 0 64 64" fill="none" xmlns="http://www.w3.org/2000/svg">
<rect width="64" height="64" rx="5" fill="#F7F7F7"/>
<path d="M39.0885 31.9993C39.0885 35.9114 35.9172 39.0827 32.0052 39.0827C28.0932 39.0827 24.9219 35.9114 24.9219 31.9993C24.9219 28.0873 28.0932 24.916 32.0052 24.916C35.9172 24.916 39.0885 28.0873 39.0885 31.9993Z" stroke="#0D3896" stroke-width="2"/>
<path d="M32.0026 17.833C31.4681 18.3052 30.7197 19.533 32.0026 20.6663M32.0026 43.333C32.5371 43.8052 33.2855 45.033 32.0026 46.1663M42.6276 21.3785C41.8747 21.3319 40.3968 21.6905 40.5086 23.4975M22.7883 39.7913C22.8349 40.5443 22.4763 42.0222 20.6693 41.9103M22.0898 21.3747C22.0431 22.1284 22.4021 23.6078 24.2109 23.4958M40.5026 39.795C41.2555 39.7509 42.7334 40.0899 42.6216 41.7984M46.1693 31.9997C45.697 31.4651 44.4693 30.7168 43.3359 31.9997M20.6693 31.2913C20.197 31.8259 18.9693 32.5742 17.8359 31.2913" stroke="#0D3896" stroke-width="2" stroke-linecap="round"/>
</svg>
