<svg width="64" height="64" viewBox="0 0 64 64" fill="none" xmlns="http://www.w3.org/2000/svg">
<rect width="64" height="64" rx="5" fill="#F7F7F7"/>
<path d="M32.7831 34.2778C30.6307 36.5907 22.3839 40.5149 24.9587 44.7886C25.8836 46.3238 28.5463 46.1663 30.3893 46.1663H33.6159C38.4536 46.1663 40.8725 46.1663 42.527 44.7902C44.1816 43.414 44.536 41.1073 45.245 36.4939L45.6715 33.7187C46.1716 30.4643 46.4216 28.8372 45.8064 27.3946C45.1911 25.9521 43.8261 24.9651 41.096 22.9912L39.0562 21.5163C35.66 19.0608 33.9619 17.833 32.0026 17.833C30.0433 17.833 28.3452 19.0608 24.949 21.5163L22.9092 22.9912C20.1791 24.9651 18.8141 25.9521 18.1988 27.3946C17.5836 28.8372 17.8336 30.4643 18.3337 33.7187L18.7602 36.4939C19.2646 39.7758 19.5895 41.8904 20.3307 43.333M32.2577 40.6781C35.6128 40.0285 37.9112 37.9636 38.9923 34.6277C40.2169 30.8495 38.557 26.1683 34.3757 25.0855C34.3757 25.0855 35.665 26.6223 34.8322 27.9705C33.2266 30.8599 28.6373 29.8993 26.7969 33.5814C25.7131 35.6369 26.0416 38.0701 27.6022 39.5877C28.5828 40.5413 30.6466 40.99 32.2577 40.6781Z" stroke="#0D3896" stroke-width="1.5" stroke-linecap="round" stroke-linejoin="round"/>
</svg>
