<svg width="64" height="64" viewBox="0 0 64 64" fill="none" xmlns="http://www.w3.org/2000/svg">
<rect width="64" height="64" rx="5" fill="#F7F7F7"/>
<path d="M31.9948 17.833C27.7338 17.833 24.971 20.6932 21.7035 21.7358C20.3749 22.1597 19.7106 22.3716 19.4418 22.6704C19.1729 22.9692 19.0942 23.4058 18.9368 24.279C17.2519 33.6232 20.9345 42.262 29.717 45.6244C30.6606 45.9857 31.1324 46.1664 31.9995 46.1663C32.8666 46.1663 33.3384 45.9857 34.2819 45.6244C43.0638 42.2619 46.7429 33.6231 45.0576 24.279C44.9001 23.4057 44.8213 22.969 44.5524 22.6702C44.2835 22.3714 43.6193 22.1596 42.2908 21.7359C39.022 20.6935 36.256 17.833 31.9948 17.833Z" stroke="#0D3896" stroke-width="2" stroke-linecap="round" stroke-linejoin="round"/>
<path d="M27.75 33.4167C27.75 33.4167 29.1667 33.4167 30.5833 36.25C30.5833 36.25 35.0833 29.1667 39.0833 27.75" stroke="#0D3896" stroke-width="2" stroke-linecap="round" stroke-linejoin="round"/>
</svg>
