<svg width="242" height="118" viewBox="0 0 242 118" fill="none" xmlns="http://www.w3.org/2000/svg">
<path d="M153.639 49.032V95.304H138.871V62.9512H124.23V49.032H153.639ZM153.639 88.7833C156.247 92.8797 159.907 95.8892 164.62 97.812C169.332 99.7348 174.969 100.822 181.533 101.072C185.235 101.24 189.611 101.365 194.659 101.449C199.792 101.449 205.177 101.407 210.815 101.323C216.453 101.24 221.964 101.072 227.35 100.822C232.819 100.571 237.657 100.278 241.865 99.9438C241.36 101.114 240.771 102.619 240.098 104.458C239.424 106.297 238.793 108.178 238.204 110.101C237.699 112.024 237.321 113.738 237.068 115.242C233.282 115.493 228.948 115.66 224.068 115.744C219.188 115.911 214.181 115.995 209.048 115.995C203.915 116.078 198.951 116.078 194.154 115.995C189.358 115.911 185.067 115.786 181.28 115.619C173.539 115.284 166.934 114.072 161.464 111.982C155.995 109.976 151.156 106.548 146.949 101.699C144.172 104.04 141.311 106.465 138.366 108.972C135.505 111.48 132.35 114.072 128.9 116.747L121.453 101.072C124.398 99.3168 127.47 97.394 130.667 95.304C133.865 93.2141 136.936 91.0405 139.881 88.7833H153.639ZM124.356 12.1648L135.589 3.13612C138.198 4.8081 140.849 6.77267 143.541 9.02985C146.234 11.2034 148.758 13.4606 151.114 15.8014C153.47 18.0585 155.364 20.1485 156.794 22.0713L144.803 32.1032C143.541 30.0968 141.774 27.9232 139.502 25.5825C137.314 23.2417 134.874 20.9009 132.182 18.5601C129.489 16.1358 126.88 14.004 124.356 12.1648ZM177.115 42.0097V52.7939H219.272V42.0097H177.115ZM163.231 30.473H233.913V64.2052H163.231V30.473ZM159.192 11.0362H238.204V23.5761H159.192V11.0362ZM190.494 0.251953H205.135V97.812H190.494V0.251953ZM186.455 60.4432L197.436 64.3306C195.08 68.5941 192.219 72.7323 188.853 76.745C185.487 80.6742 181.785 84.3108 177.746 87.6547C173.707 90.9151 169.584 93.5902 165.377 95.6802C164.704 94.5098 163.778 93.2141 162.6 91.7929C161.506 90.3717 160.328 88.9923 159.066 87.6547C157.888 86.3171 156.794 85.1886 155.784 84.269C159.823 82.6806 163.778 80.6324 167.649 78.1244C171.519 75.6165 175.096 72.8577 178.377 69.8481C181.659 66.755 184.352 63.62 186.455 60.4432ZM206.902 60.3178C209.343 63.3274 212.372 66.337 215.99 69.3465C219.608 72.2725 223.521 74.9895 227.728 77.4974C231.936 80.0054 236.059 82.0536 240.098 83.642C239.004 84.5616 237.784 85.7319 236.437 87.1531C235.175 88.4907 233.955 89.9119 232.777 91.4167C231.599 92.8379 230.631 94.1754 229.874 95.4294C225.835 93.2559 221.712 90.5389 217.505 87.2785C213.382 83.9346 209.511 80.3398 205.893 76.4943C202.274 72.5651 199.119 68.6359 196.426 64.7068L206.902 60.3178Z" fill="#F7F7F7"/>
<path d="M0.15625 10.5335H110.975V23.4495H0.15625V10.5335ZM46.9829 0H62.5077V16.9288H46.9829V0ZM5.07873 61.1945H97.47V73.6089H19.8462V118H5.07873V61.1945ZM91.7902 61.1945H106.936V102.074C106.936 105.502 106.516 108.261 105.674 110.351C104.833 112.524 103.192 114.196 100.752 115.367C98.3114 116.453 95.4084 117.122 92.0426 117.373C88.6768 117.624 84.6799 117.749 80.0519 117.749C79.7995 115.659 79.2105 113.235 78.2849 110.476C77.3593 107.801 76.3916 105.544 75.3819 103.705C78.327 103.788 81.1458 103.872 83.8385 103.955C86.6152 103.955 88.4244 103.914 89.2658 103.83C90.2756 103.746 90.9487 103.579 91.2853 103.328C91.6219 103.078 91.7902 102.576 91.7902 101.824V61.1945ZM31.2058 79.3773H44.3324V113.36H31.2058V79.3773ZM37.8953 79.3773H79.6733V107.592H37.8953V97.4346H66.4204V89.5345H37.8953V79.3773ZM35.2447 38.2465V45.8959H74.877V38.2465H35.2447ZM20.8559 28.2147H90.2756V55.9277H20.8559V28.2147Z" fill="#F7F7F7"/>
</svg>
