<svg width="414" height="118" viewBox="0 0 414 118" fill="none" xmlns="http://www.w3.org/2000/svg">
<path d="M351.565 55.0191H378.668V66.8045H351.565V55.0191ZM351.565 76.2077H378.773V87.9931H351.565V76.2077ZM331.291 97.2709H402.199V111.188H331.291V97.2709ZM323.307 32.4514H409.133V117.582H396.316V46.2428H335.493V117.582H323.307V32.4514ZM346.208 41.6039H357.448V103.54H346.208V41.6039ZM373.626 41.6039H384.971V103.414H373.626V41.6039ZM358.183 13.5196L372.995 17.2809C371.735 21.878 370.509 26.4751 369.319 31.0723C368.198 35.5858 367.113 39.4725 366.062 42.7322L354.612 39.0963C355.102 36.6724 355.592 33.9977 356.082 31.0723C356.573 28.0632 356.993 25.0542 357.343 22.0452C357.763 18.9525 358.043 16.1107 358.183 13.5196ZM319 7H413.965V21.1675H319V7Z" fill="#F7F7F7"/>
<path d="M218.347 8.52619H304.488V21.3146H218.347V8.52619ZM223.285 27.7088H300.391V39.6195H223.285V27.7088ZM214.461 46.6406H307.745V59.429H214.461V46.6406ZM254.59 0.125977H267.301V57.2976H254.59V0.125977ZM254.695 51.2795L265.62 57.5483C262.748 61.1425 259.492 64.6112 255.85 67.9546C252.278 71.2979 248.427 74.4323 244.295 77.3578C240.163 80.1997 235.926 82.7908 231.584 85.1311C227.242 87.3879 222.9 89.3103 218.558 90.8984C217.997 89.7282 217.227 88.3909 216.246 86.8864C215.336 85.3819 214.356 83.9191 213.305 82.4982C212.325 80.9937 211.379 79.7399 210.469 78.7369C214.601 77.3996 218.803 75.7697 223.075 73.8472C227.347 71.9248 231.444 69.7516 235.365 67.3277C239.287 64.9037 242.894 62.3544 246.186 59.6797C249.547 57.005 252.384 54.205 254.695 51.2795ZM272.868 53.6617C274.689 61.9365 277.245 69.4591 280.537 76.2294C283.828 82.9997 288.03 88.767 293.143 93.5313C298.255 98.212 304.383 101.764 311.526 104.188C310.616 105.275 309.636 106.57 308.585 108.075C307.535 109.663 306.554 111.293 305.644 112.965C304.733 114.72 303.963 116.266 303.333 117.604C295.559 114.427 288.941 109.997 283.478 104.314C278.086 98.5464 273.604 91.6507 270.032 83.6266C266.53 75.6025 263.624 66.4918 261.313 56.2946L272.868 53.6617ZM297.03 61.1842L307.535 70.5875C304.873 72.8442 302.107 75.101 299.236 77.3578C296.364 79.531 293.528 81.5788 290.727 83.5012C287.925 85.4237 285.299 87.1371 282.848 88.6417L274.969 80.4922C277.28 78.8205 279.766 76.8981 282.428 74.7249C285.159 72.5517 287.785 70.2949 290.306 67.9546C292.898 65.6142 295.139 63.3574 297.03 61.1842ZM221.604 103.812C225.876 102.893 230.743 101.806 236.206 100.552C241.739 99.2151 247.516 97.7941 253.539 96.2896C259.632 94.7851 265.655 93.2388 271.608 91.6507L272.763 105.191C267.301 106.696 261.733 108.2 256.06 109.705C250.458 111.209 245.03 112.63 239.778 113.968C234.595 115.305 229.798 116.559 225.386 117.729L221.604 103.812ZM235.996 78.3608L244.295 68.4561L248.707 69.8352V105.818H235.996V78.3608Z" fill="#F7F7F7"/>
<path d="M140.492 11.0331H205.623V25.326H140.492V11.0331ZM186.609 16.1735H199.215V100.176C199.215 104.438 198.759 107.74 197.849 110.08C197.008 112.421 195.468 114.176 193.227 115.346C190.916 116.433 187.974 117.143 184.403 117.478C180.831 117.896 176.594 118.063 171.692 117.979C171.481 115.889 170.956 113.34 170.116 110.331C169.275 107.406 168.4 104.856 167.49 102.683C169.801 102.767 172.042 102.85 174.213 102.934C176.454 103.018 178.415 103.059 180.096 103.059C181.846 103.059 183.072 103.059 183.772 103.059C184.823 103.059 185.558 102.85 185.978 102.432C186.398 101.931 186.609 101.137 186.609 100.05V16.1735ZM141.752 38.992H153.623V92.7785H141.752V38.992ZM146.9 38.992H176.944V84.629H146.9V71.5899H165.284V51.9058H146.9V38.992ZM129.672 0L141.542 4.51354C139.301 11.451 136.675 18.4721 133.664 25.5768C130.652 32.6814 127.361 39.3682 123.789 45.637C120.287 51.9058 116.646 57.4223 112.864 62.1866C112.444 60.9329 111.848 59.3448 111.078 57.4223C110.308 55.4163 109.467 53.4103 108.557 51.4043C107.646 49.3147 106.841 47.6848 106.141 46.5146C109.292 42.7533 112.304 38.4069 115.175 33.4755C118.116 28.4604 120.848 23.111 123.369 17.4273C125.89 11.66 127.991 5.85089 129.672 0ZM120.217 35.2307L132.718 20.1856L132.823 20.311V117.603H120.217V35.2307Z" fill="#F7F7F7"/>
<path d="M88.0784 1.88072L97.3228 14.6691C93.1908 16.2572 88.7437 17.7617 83.9815 19.1826C79.2192 20.52 74.2819 21.7738 69.1695 22.9439C64.0571 24.0305 58.9447 25.0335 53.8323 25.953C48.7198 26.7888 43.7125 27.5411 38.8102 28.2097C38.53 26.3709 38.0048 24.1977 37.2344 21.6902C36.4641 19.1826 35.7287 17.0512 35.0284 15.296C39.7906 14.6273 44.5879 13.8333 49.4202 12.9138C54.3225 11.9108 59.0847 10.8242 63.7069 9.65404C68.3991 8.48386 72.8112 7.27189 76.9432 6.01813C81.0751 4.68078 84.7869 3.30164 88.0784 1.88072ZM32.087 52.5327H99.949V67.0764H32.087V52.5327ZM36.394 99.1727H98.7935V113.591H36.394V99.1727ZM60.6605 20.4364H73.4765V103.686H60.6605V20.4364ZM16.1195 36.7353L28.4103 21.9409L28.6204 22.1917V117.728H16.1195V36.7353ZM26.5194 0.626953L38.9152 5.26588C36.5341 12.6213 33.6627 19.9767 30.3012 27.3321C26.9396 34.6039 23.3329 41.4996 19.481 48.0192C15.6292 54.4552 11.6373 60.0971 7.50539 64.945C7.0852 63.6912 6.41988 62.0613 5.50945 60.0553C4.59902 58.0493 3.65358 56.0433 2.67311 54.0373C1.69265 52.0312 0.817238 50.4013 0.046875 49.1476C3.54853 45.2191 6.94513 40.7056 10.2367 35.6069C13.5983 30.4247 16.6447 24.8246 19.376 18.8065C22.1773 12.7885 24.5584 6.7286 26.5194 0.626953Z" fill="#F7F7F7"/>
</svg>
