<svg width="410" height="119" viewBox="0 0 410 119" fill="none" xmlns="http://www.w3.org/2000/svg">
<path d="M361.982 40.5114V51.0741H393.288V40.5114H361.982ZM361.982 18.2677V28.7061H393.288V18.2677H361.982ZM350.683 5.7168H405.21V63.7492H350.683V5.7168ZM350.061 74.4362H406.246V87.8569H350.061V74.4362ZM342.805 99.6623H409.771V113.207H342.805V99.6623ZM312.431 7.58079H346.847V21.3744H312.431V7.58079ZM313.364 43.3695H345.085V57.0388H313.364V43.3695ZM311.188 90.5908C314.228 89.5967 317.615 88.4783 321.346 87.2356C325.147 85.9101 329.156 84.4603 333.371 82.8863C337.587 81.2294 341.733 79.6139 345.811 78.0399L347.988 92.2063C342.183 94.5259 336.308 96.887 330.365 99.2895C324.422 101.692 318.962 103.846 313.986 105.751L311.188 90.5908ZM323.834 13.0485H335.756V89.3481L323.834 91.7092V13.0485ZM372.66 11.0603H383.129V57.7845H384.27V106H371.519V57.7845H372.66V11.0603Z" fill="#F7F7F7"/>
<path d="M245.26 77.7903H293.256V88.353H245.26V77.7903ZM290.353 77.7903H292.53L294.499 77.169L301.549 81.5183C299.13 86.986 295.951 91.7496 292.012 95.809C288.142 99.8683 283.753 103.306 278.846 106.123C273.94 108.94 268.653 111.259 262.986 113.082C257.319 114.905 251.41 116.354 245.26 117.431C244.776 115.774 244.05 113.828 243.083 111.591C242.184 109.354 241.251 107.573 240.284 106.247C245.813 105.585 251.168 104.59 256.352 103.265C261.535 101.857 266.338 100.075 270.761 97.9215C275.253 95.7675 279.157 93.1579 282.475 90.0927C285.861 87.0275 288.487 83.5066 290.353 79.53V77.7903ZM262.468 86.986C265.163 90.217 268.722 93.1165 273.145 95.6847C277.568 98.17 282.613 100.241 288.28 101.898C293.947 103.472 299.89 104.632 306.11 105.377C304.866 106.703 303.553 108.526 302.171 110.845C300.857 113.248 299.821 115.319 299.061 117.059C292.495 115.982 286.276 114.325 280.401 112.088C274.596 109.851 269.309 107.034 264.541 103.638C259.842 100.158 255.799 96.1403 252.412 91.5839L262.468 86.986ZM243.912 6.7099H304.14V17.2725H243.912V6.7099ZM255.522 42.2501H299.164V49.7061H255.522V42.2501ZM255.522 53.4341H299.164V60.7658H255.522V53.4341ZM256.87 0.248047H267.962V23.2373H256.87V0.248047ZM271.694 33.6757H282.475V71.7013H271.694V33.6757ZM279.987 0.248047H291.079V23.2373H279.987V0.248047ZM253.449 20.3792L263.193 23.3616C261.397 28.6636 259.081 33.8414 256.248 38.8949C253.414 43.9484 250.477 48.1735 247.437 51.5701C246.953 50.9073 246.227 50.0789 245.26 49.0848C244.292 48.0906 243.29 47.1379 242.253 46.2266C241.217 45.2325 240.318 44.4455 239.558 43.8656C242.461 40.966 245.121 37.4451 247.54 33.3029C250.028 29.0779 251.998 24.77 253.449 20.3792ZM274.7 20.8763L285.999 22.9888C284.963 25.4741 283.926 27.7938 282.889 29.9477C281.853 32.0188 280.92 33.8414 280.09 35.4155L270.553 33.3029C271.314 31.3975 272.074 29.3264 272.834 27.0896C273.663 24.77 274.285 22.6989 274.7 20.8763ZM301.341 29.4507V38.6464H261.224V64.7423H303.829V73.9381H250.443V29.4507H301.341ZM212.399 38.5221H239.973V49.8304H212.399V38.5221ZM213.124 4.34884H239.766V15.5328H213.124V4.34884ZM212.399 55.5466H239.973V66.7306H212.399V55.5466ZM208.148 21.0005H242.668V32.8059H208.148V21.0005ZM218.1 72.6954H239.869V110.348H218.1V98.6671H229.918V84.3764H218.1V72.6954ZM212.088 72.6954H221.832V115.443H212.088V72.6954Z" fill="#F7F7F7"/>
<path d="M105.323 19.3856H150.624V33.1791H105.323V19.3856ZM122.117 46.4757H139.117V60.0207H122.117V46.4757ZM121.702 0.621332H133.934V23.9834H121.702V0.621332ZM173.844 17.273C172.531 21.7466 170.769 26.5102 168.558 31.5637C166.415 36.6172 163.858 41.4222 160.886 45.9786C157.984 50.535 154.77 54.3873 151.246 57.5354C150.693 55.3814 149.829 52.9375 148.654 50.2037C147.549 47.4698 146.512 45.1916 145.544 43.369C148.101 41.215 150.486 38.4812 152.697 35.1674C154.978 31.7708 157.051 28.0842 158.917 24.1077C160.783 20.1312 162.407 16.0718 163.789 11.9296C165.24 7.78737 166.415 3.81084 167.314 0H179.546C181.204 5.7991 183.209 11.4739 185.558 17.0245C187.977 22.5751 190.638 27.5872 193.54 32.0607C196.512 36.4515 199.622 39.8067 202.87 42.1263C201.833 44.1974 200.728 46.6413 199.553 49.4581C198.447 52.1919 197.514 54.8015 196.754 57.2868C193.298 54.2216 190.085 50.4522 187.113 45.9786C184.141 41.505 181.515 36.7829 179.235 31.8122C177.023 26.7587 175.226 21.9123 173.844 17.273ZM115.379 28.0842H127.611C127.473 37.4456 127.231 46.4757 126.885 55.1743C126.54 63.7901 125.848 71.9503 124.812 79.6548C123.844 87.3593 122.324 94.4425 120.251 100.904C118.247 107.366 115.517 113.082 112.061 118.053C111.163 116.231 109.85 114.201 108.122 111.964C106.394 109.81 104.77 108.112 103.25 106.869C106.222 102.561 108.502 97.632 110.092 92.0815C111.75 86.4481 112.925 80.2761 113.616 73.5658C114.376 66.8554 114.826 59.6893 114.964 52.0677C115.171 44.446 115.309 36.4515 115.379 28.0842ZM135.178 46.4757H146.996C146.996 46.4757 146.996 46.8899 146.996 47.7183C146.996 48.4639 146.996 49.2924 146.996 50.2037C146.996 51.1149 146.961 51.8605 146.892 52.4405C146.754 62.2989 146.581 70.749 146.374 77.7908C146.235 84.7497 146.028 90.5074 145.752 95.0639C145.544 99.5374 145.199 103.058 144.715 105.627C144.3 108.195 143.748 110.059 143.056 111.218C142.089 112.958 141.052 114.201 139.947 114.946C138.91 115.692 137.631 116.231 136.111 116.562C134.798 116.81 133.139 116.976 131.135 117.059C129.2 117.142 127.127 117.142 124.916 117.059C124.846 115.071 124.535 112.793 123.983 110.224C123.43 107.656 122.704 105.419 121.806 103.514C123.464 103.68 124.985 103.804 126.367 103.887C127.749 103.887 128.855 103.887 129.684 103.887C130.306 103.97 130.859 103.887 131.343 103.638C131.826 103.39 132.241 102.851 132.587 102.023C133.139 101.111 133.589 98.9161 133.934 95.4367C134.28 91.8744 134.556 86.4066 134.763 79.0335C134.971 71.5775 135.109 61.6776 135.178 49.3338V46.4757ZM161.819 57.0383L170.009 47.7183C172.22 49.3752 174.501 51.2806 176.851 53.4346C179.2 55.5057 181.412 57.6596 183.485 59.8964C185.558 62.0504 187.182 64.0801 188.357 65.9855L179.546 76.4239C178.44 74.4356 176.885 72.3231 174.881 70.0863C172.946 67.7666 170.838 65.4884 168.558 63.2516C166.277 60.932 164.031 58.8609 161.819 57.0383ZM153.008 90.9631L160.472 79.4063C163.513 80.9803 166.657 82.7615 169.905 84.7497C173.222 86.738 176.47 88.8505 179.649 91.0873C182.898 93.2413 185.904 95.4367 188.668 97.6734C191.502 99.9102 193.851 102.064 195.717 104.135L187.424 117.183C185.696 115.112 183.485 112.875 180.79 110.473C178.164 108.153 175.296 105.834 172.186 103.514C169.076 101.194 165.862 98.9575 162.545 96.8036C159.228 94.6496 156.049 92.7028 153.008 90.9631Z" fill="#F7F7F7"/>
<path d="M28.0926 36.5349V44.3637H71.7346V36.5349H28.0926ZM28.0926 17.6464V25.3509H71.7346V17.6464H28.0926ZM15.9641 5.7168H84.4851V56.2932H15.9641V5.7168ZM22.2875 63.7492H83.0338V76.7972H22.2875V63.7492ZM80.1313 63.7492H92.7781C92.7781 63.7492 92.7436 64.122 92.6745 64.8676C92.6745 65.5304 92.6399 66.3588 92.5708 67.353C92.5708 68.2643 92.5017 69.0513 92.3635 69.714C91.6724 78.7441 90.9122 86.1586 90.0829 91.9577C89.2536 97.674 88.3897 102.148 87.4913 105.379C86.5929 108.609 85.5563 110.929 84.3814 112.337C83.1375 113.994 81.8244 115.154 80.4423 115.817C79.0601 116.48 77.5397 116.894 75.8811 117.06C74.4298 117.308 72.5293 117.432 70.1797 117.432C67.8991 117.432 65.4803 117.35 62.9233 117.184C62.8542 115.361 62.5086 113.249 61.8866 110.846C61.3338 108.444 60.6081 106.373 59.7097 104.633C61.8521 104.881 63.8562 105.047 65.7222 105.13C67.6572 105.13 69.0739 105.13 69.9723 105.13C70.8707 105.13 71.5964 105.047 72.1493 104.881C72.7021 104.716 73.255 104.302 73.8079 103.639C74.568 102.727 75.3282 100.905 76.0884 98.1711C76.9177 95.3543 77.6434 91.3364 78.2653 86.1172C78.9564 80.898 79.5784 74.1462 80.1313 65.8618V63.7492ZM28.7146 49.7071L40.6358 54.305C38.1479 59.4413 35.1762 64.3291 31.7208 68.9684C28.3345 73.6077 24.7408 77.9156 20.9399 81.8921C17.1389 85.7858 13.3034 89.1824 9.43331 92.082C8.74222 91.0879 7.80926 89.928 6.63441 88.6025C5.52868 87.1942 4.38839 85.8272 3.21354 84.5017C2.0387 83.1762 0.967519 82.1407 0 81.3951C5.80511 77.8328 11.2647 73.2763 16.3787 67.7258C21.4927 62.0924 25.6047 56.0861 28.7146 49.7071ZM38.8735 68.3471L50.5874 72.6964C48.0995 78.4127 45.0587 83.8804 41.4651 89.0996C37.9406 94.2359 34.1396 98.9581 30.0622 103.266C25.9848 107.574 21.8037 111.302 17.519 114.45C16.897 113.456 16.0332 112.255 14.9274 110.846C13.8217 109.521 12.6469 108.195 11.4029 106.87C10.2281 105.544 9.19143 104.509 8.29302 103.763C14.7201 99.8694 20.6289 94.8573 26.0193 88.7268C31.4789 82.5135 35.7636 75.7202 38.8735 68.3471ZM60.0207 69.217L71.8383 72.5722C69.0739 81.9336 65.4457 90.5908 60.9537 98.5439C56.5307 106.414 51.7277 112.917 46.5446 118.054C45.8535 117.225 44.886 116.231 43.642 115.071C42.4672 113.911 41.2578 112.752 40.0138 111.592C38.7699 110.432 37.6641 109.521 36.6966 108.858C41.9488 104.467 46.5791 98.7924 50.5874 91.8335C54.6648 84.7917 57.8092 77.2529 60.0207 69.217Z" fill="#F7F7F7"/>
</svg>
