<svg width="64" height="64" viewBox="0 0 64 64" fill="none" xmlns="http://www.w3.org/2000/svg">
<rect width="64" height="64" rx="5" fill="#F7F7F7"/>
<path d="M40.134 15H30.1511C28.0194 15 26.2851 16.7286 26.2851 18.8533V20.3793C26.0184 20.2961 25.7351 20.2507 25.4411 20.2507C23.8797 20.2507 22.6095 21.5168 22.6095 23.073V23.9182C22.347 23.8378 22.0683 23.7945 21.7798 23.7945C20.247 23.7945 19 25.0374 19 26.5652V36.9805C19 39.0012 19.5261 40.9889 20.524 42.7477V49H33.9156V44.2892L34.6828 43.4219C35.5029 42.4947 36.0662 41.3837 36.3336 40.1953H40.134C42.2657 40.1953 44 38.4667 44 36.342V18.8533C44 16.7286 42.2657 15 40.134 15ZM30.1511 16.9953H40.134C41.1619 16.9953 41.9981 17.8288 41.9981 18.8533L41.9952 28.1173C41.9952 29.7889 41.3124 31.4228 40.1219 32.6001L40.0687 32.6528C40.0136 32.5313 39.9503 32.412 39.8784 32.2959C39.3781 31.4879 38.5485 30.9612 37.6022 30.8511C36.8898 30.7683 36.1875 30.9301 35.5953 31.3026V24.7391C35.5953 23.1828 34.325 21.9167 32.7637 21.9167C32.4751 21.9167 32.1965 21.96 31.934 22.0403V21.0382C31.934 19.546 30.7821 18.2938 29.3116 18.1873C28.9957 18.1644 28.681 18.1958 28.38 18.2752C28.6244 17.533 29.3258 16.9953 30.1511 16.9953ZM34.5097 38.1846V38.5979C34.5097 39.8891 34.0379 41.1338 33.1811 42.1025L31.9138 43.5353V47.0047H22.526V42.2036L22.3842 41.9673C21.4799 40.4589 21.0019 38.7346 21.0019 36.9806V26.5652C21.0019 26.1377 21.3508 25.7899 21.7798 25.7899C22.2373 25.7899 22.6095 26.1608 22.6095 26.6168V31.9922H24.6114V23.0729C24.6114 22.617 24.9836 22.246 25.4411 22.246C25.8986 22.246 26.2707 22.617 26.2707 23.0729V31.9922H28.2726L28.287 20.9412C28.287 20.5036 28.6136 20.1774 29.1665 20.1774C29.5969 20.1774 29.9321 20.5865 29.9321 21.0382V31.9922H31.934V24.739C31.934 24.283 32.3062 23.912 32.7636 23.912C33.2211 23.912 33.5933 24.283 33.5933 24.739V36.0303L36.4688 33.1452C36.707 32.9079 37.0356 32.7938 37.37 32.833C37.7045 32.8719 37.9979 33.0581 38.1748 33.3437C38.425 33.748 38.3846 34.2575 38.0838 34.6157L34.5097 38.1846ZM40.134 38.2H37.3253C37.3253 38.2 41.85 33.6876 41.9981 33.5141V36.342C41.9981 37.3665 41.1619 38.2 40.134 38.2Z" fill="#0D3896"/>
</svg>
