<svg width="64" height="64" viewBox="0 0 64 64" fill="none" xmlns="http://www.w3.org/2000/svg">
<rect width="64" height="64" rx="5" fill="#F7F7F7"/>
<path d="M47.7857 15H23.5C22.8294 15 22.2857 15.5437 22.2857 16.2143V18.6429H19.8571C19.1866 18.6429 18.6429 19.1866 18.6429 19.8571V22.2857H16.2143C15.5437 22.2857 15 22.8294 15 23.5V47.7857C15 48.4563 15.5437 49 16.2143 49H40.5C41.1706 49 41.7143 48.4563 41.7143 47.7857V45.3571H44.1429C44.8134 45.3571 45.3571 44.8134 45.3571 44.1429V41.7143H47.7857C48.4563 41.7143 49 41.1706 49 40.5V16.2143C49 15.5437 48.4563 15 47.7857 15ZM39.2857 46.5714H17.4286V24.7143H39.2857V46.5714ZM42.9286 42.9286H41.7143V23.5C41.7143 22.8294 41.1706 22.2857 40.5 22.2857H21.0714V21.0714H42.9286V42.9286ZM46.5714 39.2857H45.3571V19.8571C45.3571 19.1866 44.8134 18.6429 44.1429 18.6429H24.7143V17.4286H46.5714V39.2857Z" fill="#0D3896"/>
<path d="M19.2202 30.6044C19.4153 30.7248 19.6371 30.7859 19.8588 30.7859C20.0444 30.7859 20.2306 30.7432 20.4019 30.6578L22.8305 29.4435C23.1797 29.2686 23.4234 28.9372 23.4863 28.5518C23.5485 28.1664 23.4222 27.7744 23.1459 27.4987L21.9316 26.2845C21.4573 25.8101 20.6889 25.8101 20.2146 26.2845L19.0003 27.4987C18.7726 27.7264 18.6445 28.0353 18.6445 28.3573V29.5716C18.6445 29.9925 18.8627 30.3833 19.2202 30.6044Z" fill="#0D3896"/>
<path d="M22.4126 30.243L21.1984 32.6716C20.9648 33.1394 21.0567 33.7038 21.426 34.0732C21.6591 34.3062 21.9697 34.429 22.2852 34.429C22.469 34.429 22.6552 34.3869 22.8277 34.3009L25.2563 33.0866C25.6055 32.9117 25.8492 32.5803 25.912 32.1949C25.9743 31.8095 25.848 31.4176 25.5717 31.1419L24.3574 29.9276C24.0811 29.6513 23.688 29.5268 23.3044 29.5872C22.919 29.6501 22.5876 29.8938 22.4126 30.243Z" fill="#0D3896"/>
<path d="M19.3156 37.9431L21.7442 39.1574C21.9179 39.2439 22.1035 39.2854 22.2867 39.2854H22.3045C23.0148 39.318 23.5259 38.7441 23.5259 38.0711C23.5259 37.662 23.3237 37.3004 23.0136 37.0804L21.9316 35.9983C21.7039 35.7706 21.395 35.6426 21.073 35.6426H19.8588C19.2955 35.6426 18.8063 36.0298 18.6771 36.5776C18.5478 37.126 18.8123 37.6911 19.3156 37.9431Z" fill="#0D3896"/>
<path d="M36.3145 32.1284L33.886 33.3427C33.3826 33.5947 33.1181 34.1597 33.2474 34.7082C33.3766 35.256 33.8658 35.6432 34.4291 35.6432H35.6434C35.9653 35.6432 36.2742 35.5151 36.5019 35.2875L37.7162 34.0732C38.1371 33.6522 38.1911 32.9876 37.8425 32.5049C37.495 32.0217 36.8482 31.8616 36.3145 32.1284Z" fill="#0D3896"/>
<path d="M23.1459 40.8557C22.9183 40.6281 22.6093 40.5 22.2874 40.5H19.8588C19.3679 40.5 18.925 40.7959 18.737 41.2494C18.5491 41.7036 18.6528 42.2254 19.0003 42.5728L21.4289 45.0014C21.666 45.2386 21.9767 45.3571 22.2874 45.3571C22.5981 45.3571 22.9088 45.2386 23.1459 45.0014L24.3602 43.7871C24.8345 43.3128 24.8345 42.5444 24.3602 42.07L23.1459 40.8557Z" fill="#0D3896"/>
<path d="M36.8571 40.5H34.4286C34.1066 40.5 33.7977 40.6281 33.57 40.8557L32.3557 42.07C31.8814 42.5444 31.8814 43.3128 32.3557 43.7871L33.57 45.0014C33.8072 45.2386 34.1179 45.3571 34.4286 45.3571C34.7393 45.3571 35.0499 45.2386 35.2871 45.0014L37.7157 42.5728C38.0631 42.2254 38.1669 41.7036 37.9789 41.2494C37.791 40.7959 37.3481 40.5 36.8571 40.5Z" fill="#0D3896"/>
<path d="M28.0014 33.5702C27.6332 33.2014 27.0682 33.1095 26.5997 33.3425L24.1712 34.5568C23.7597 34.7625 23.5 35.1829 23.5 35.643C23.5 36.1031 23.7597 36.5235 24.1712 36.7292L26.5997 37.9435C26.7723 38.0295 26.9585 38.0716 27.1423 38.0716C27.4577 38.0716 27.7684 37.9488 28.0014 37.7158L29.2157 36.5015C29.69 36.0272 29.69 35.2588 29.2157 34.7844L28.0014 33.5702Z" fill="#0D3896"/>
<path d="M28.3555 32.0004C28.3555 32.4605 28.6152 32.8809 29.0266 33.0866L31.4552 34.3009C31.6278 34.3869 31.8139 34.429 31.9977 34.429C32.3132 34.429 32.6238 34.3062 32.8569 34.0732L34.0711 32.8589C34.5455 32.3846 34.5455 31.6162 34.0711 31.1419L32.8569 29.9276C32.4887 29.5588 31.9236 29.4669 31.4552 29.6999L29.0266 30.9142C28.6152 31.1199 28.3555 31.5403 28.3555 32.0004Z" fill="#0D3896"/>
<path d="M26.2851 30.4307C26.5145 30.6601 26.824 30.7864 27.1436 30.7864C27.2082 30.7864 27.2734 30.7811 27.3381 30.771C27.7235 30.7081 28.0549 30.4644 28.2298 30.1152L29.4441 27.6867C29.6777 27.2188 29.5858 26.6544 29.2164 26.285C28.8482 25.9162 28.2832 25.8243 27.8148 26.0573L25.3862 27.2716C25.037 27.4465 24.7933 27.778 24.7304 28.1634C24.6682 28.5487 24.7945 28.9407 25.0708 29.2164L26.2851 30.4307Z" fill="#0D3896"/>
<path d="M26.7878 38.4272C26.3686 38.0056 25.7027 37.9523 25.2195 38.3009C24.7363 38.6489 24.5768 39.2958 24.843 39.8288L26.0573 42.2574C26.263 42.6689 26.6834 42.9286 27.1435 42.9286H28.3578C28.8487 42.9286 29.2916 42.6327 29.4796 42.1791C29.6675 41.725 29.5638 41.2032 29.2163 40.8558L26.7878 38.4272Z" fill="#0D3896"/>
<path d="M34.3351 36.392C34.1471 35.9384 33.7042 35.6426 33.2133 35.6426H31.999C31.5389 35.6426 31.1185 35.9023 30.9128 36.3138L29.6985 38.7423C29.4323 39.2754 29.5918 39.9222 30.075 40.2703C30.2878 40.4244 30.5369 40.4997 30.7841 40.4997C31.0972 40.4997 31.4084 40.3794 31.6432 40.144L34.0718 37.7154C34.4193 37.368 34.523 36.8462 34.3351 36.392Z" fill="#0D3896"/>
<path d="M35.9992 30.4301C36.234 30.6655 36.5452 30.7859 36.8583 30.7859C37.1055 30.7859 37.3546 30.7106 37.5674 30.5564C38.0506 30.2084 38.2101 29.5615 37.9439 29.0285L36.7296 26.5999C36.5239 26.1884 36.1035 25.9287 35.6434 25.9287H34.4291C33.9382 25.9287 33.4953 26.2246 33.3073 26.6782C33.1194 27.1323 33.2231 27.6541 33.5706 28.0015L35.9992 30.4301Z" fill="#0D3896"/>
</svg>
