<svg width="249" height="118" viewBox="0 0 249 118" fill="none" xmlns="http://www.w3.org/2000/svg">
<path d="M197.057 44.2028H212.202V118H197.057V44.2028ZM163.738 60.0704H244.89V73.6713H163.738V60.0704ZM215.105 66.1153C217.461 70.6489 220.406 75.1405 223.94 79.5902C227.557 84.0398 231.47 88.1537 235.677 91.9317C239.968 95.7097 244.301 98.8581 248.676 101.377C247.582 102.216 246.32 103.35 244.89 104.777C243.544 106.204 242.24 107.673 240.978 109.185C239.8 110.696 238.79 112.081 237.949 113.34C233.573 110.234 229.24 106.372 224.949 101.755C220.742 97.137 216.788 92.1416 213.086 86.7684C209.468 81.3113 206.355 75.7702 203.746 70.1451L215.105 66.1153ZM194.912 64.8559L206.775 69.0117C204.083 74.8886 200.801 80.6396 196.931 86.2647C193.061 91.8058 188.812 96.8851 184.184 101.503C179.557 106.036 174.719 109.898 169.67 113.089C168.913 111.829 167.903 110.444 166.641 108.933C165.463 107.422 164.201 105.994 162.855 104.651C161.593 103.224 160.373 102.006 159.195 100.999C164.075 98.4803 168.787 95.3319 173.33 91.5539C177.874 87.6919 181.997 83.4941 185.699 78.9605C189.485 74.3429 192.556 69.6414 194.912 64.8559ZM186.456 18.5123V35.3874H223.561V18.5123H186.456ZM172.194 5.16329H238.832V48.6105H172.194V5.16329ZM155.661 0L169.67 4.53362C166.894 11.6699 163.57 18.8061 159.7 25.9424C155.914 32.9947 151.791 39.7111 147.332 46.0918C142.956 52.3885 138.455 57.9296 133.827 62.715C133.407 61.4557 132.733 59.8605 131.808 57.9296C130.882 55.9986 129.873 54.0256 128.779 52.0107C127.685 49.9957 126.676 48.4006 125.75 47.2252C129.705 43.3632 133.533 38.9136 137.235 33.8762C140.937 28.8389 144.345 23.4237 147.458 17.6307C150.655 11.8378 153.389 5.96087 155.661 0ZM143.419 34.7577L157.807 20.4013V20.5272V117.622H143.419V34.7577Z" fill="#F7F7F7"/>
<path d="M1.93999 8.56278H42.5788V21.9118H1.93999V8.56278ZM2.94965 44.8317H40.8119V58.1807H2.94965V44.8317ZM41.1906 36.2682H119.313V48.2319H41.1906V36.2682ZM0.046875 86.6418C3.74896 85.8862 7.95588 84.9626 12.6676 83.8712C17.4635 82.6958 22.5118 81.4365 27.8125 80.0932C33.1133 78.666 38.3298 77.3227 43.4623 76.0633L45.2292 89.4123C38.0774 91.5112 30.7995 93.5681 23.3953 95.5831C15.9911 97.514 9.26003 99.2771 3.20206 100.872L0.046875 86.6418ZM62.141 63.5959V71.6556H98.3626V63.5959H62.141ZM48.8892 52.8915H112.372V82.36H48.8892V52.8915ZM93.8191 13.852V21.9118H101.896V13.852H93.8191ZM76.2763 13.852V21.9118H84.2273V13.852H76.2763ZM58.8596 13.852V21.9118H66.5583V13.852H58.8596ZM46.8699 3.65137H114.517V32.1124H46.8699V3.65137ZM84.8584 76.5671C86.8777 81.0167 89.6122 85.2145 93.0619 89.1604C96.5115 93.0224 100.466 96.4226 104.925 99.3611C109.469 102.3 114.391 104.608 119.692 106.287C118.177 107.631 116.494 109.478 114.643 111.829C112.792 114.179 111.32 116.236 110.226 117.999C101.896 114.557 94.6605 109.478 88.5184 102.761C82.3763 96.0448 77.5383 88.3629 74.0045 79.7154L84.8584 76.5671ZM107.197 81.9822L117.672 89.6642C115.148 91.5952 112.498 93.4422 109.721 95.2053C107.029 96.9683 104.589 98.4796 102.401 99.7389L93.6929 92.9385C95.1233 92.0149 96.6798 90.9235 98.3626 89.6642C100.045 88.3209 101.644 86.9776 103.158 85.6343C104.757 84.291 106.103 83.0736 107.197 81.9822ZM15.949 14.3557H29.4532V87.7752L15.949 89.916V14.3557ZM77.7908 74.5521L88.3922 79.3376C84.6901 83.8712 80.2728 88.2369 75.1404 92.4347C70.008 96.5486 64.539 100.285 58.7334 103.643C52.9279 107.001 47.1644 109.73 41.443 111.829C40.5174 110.233 39.1712 108.386 37.4043 106.287C35.6374 104.189 34.0809 102.467 32.7346 101.124C38.2878 99.3611 43.883 97.1363 49.5203 94.4497C55.2417 91.6791 60.5844 88.5727 65.5486 85.1306C70.5128 81.6884 74.5935 78.1622 77.7908 74.5521ZM65.17 92.3088L79.4314 82.8638V117.999H65.17V92.3088Z" fill="#F7F7F7"/>
</svg>
