<svg width="64" height="64" viewBox="0 0 64 64" fill="none" xmlns="http://www.w3.org/2000/svg">
<rect width="64" height="64" rx="5" fill="#F7F7F7"/>
<path d="M37.0708 30.528V28.9425H35.0772V30.1795H33.1532L29.8313 26.8577L30.521 21.7123L24.0256 15L16.7265 22.0633L23.2219 28.7755L28.4073 28.2531L30.3338 30.1795H21.7115V32.8952H19.6478V34.8889H21.7115V35.7797C19.9759 36.209 18.6851 37.7787 18.6851 39.645C18.6851 40.7413 17.7932 41.6332 16.6969 41.6332H15V43.6269H16.6969C18.8925 43.6269 20.6788 41.8406 20.6788 39.645C20.6788 38.5486 21.5707 37.6567 22.667 37.6567H23.5361L21.7455 49.0389H30.3048V43.424L28.7609 42.2128L29.4432 37.6567H30.8999V41.377H34.2095V39.3834H32.8935V37.6567H35.0772V38.7204V38.8415H37.0708V37.3083L40.4499 34.9149H43.0218V32.9213H40.4499L37.0708 30.528ZM25.6448 19.5402L21.2829 20.4284L23.9793 17.8191L25.6448 19.5402ZM23.983 26.6951L20.1172 22.7002L27.2895 21.2398L28.4167 22.4046L27.8944 26.301L23.983 26.6951ZM28.3111 44.3938V47.0452H24.0772L25.5542 37.6566H27.4272L26.6174 43.0651L28.3111 44.3938ZM23.7051 35.6631V32.1732H35.0772V35.6631H23.7051ZM37.0708 34.8652V32.971L38.408 33.9181L37.0708 34.8652Z" fill="#0D3896"/>
<path d="M46.7698 33.8918L48.9925 31.7012L47.5931 30.2812L43.9297 33.8918L47.5935 37.5025L48.9929 36.0826L46.7698 33.8918Z" fill="#0D3896"/>
</svg>
