<svg width="249" height="120" viewBox="0 0 249 120" fill="none" xmlns="http://www.w3.org/2000/svg">
<path d="M160.086 10.6284H244.39V23.922H160.086V10.6284ZM194.545 0.5H209.549V119.383H194.545V0.5ZM213.746 72.5385C216.119 76.7587 219.129 80.8945 222.774 84.9459C226.419 88.9128 230.403 92.5422 234.726 95.834C239.05 99.1257 243.5 101.827 248.078 103.937C246.891 104.95 245.619 106.173 244.263 107.608C242.991 109.043 241.72 110.52 240.448 112.039C239.262 113.643 238.244 115.12 237.397 116.471C232.819 113.601 228.326 110.098 223.918 105.962C219.595 101.742 215.611 97.1 211.965 92.0358C208.32 86.9716 205.184 81.7385 202.556 76.3367L213.746 72.5385ZM188.569 72.5385L201.03 76.7165C198.148 82.3716 194.63 87.7734 190.476 92.922C186.322 98.0707 181.745 102.713 176.743 106.849C171.742 110.9 166.486 114.276 160.976 116.977C160.213 115.795 159.238 114.445 158.051 112.926C156.864 111.406 155.635 109.929 154.364 108.495C153.092 107.06 151.905 105.878 150.803 104.95C155.974 102.839 160.976 100.139 165.808 96.8468C170.64 93.4706 175.005 89.6725 178.905 85.4523C182.889 81.2321 186.11 76.9275 188.569 72.5385ZM178.396 60.1312V67.3477H226.207V60.1312H178.396ZM178.396 42.6596V49.8762H226.207V42.6596H178.396ZM164.663 31.645H240.575V78.489H164.663V31.645ZM128.424 19.3642L138.724 9.48899C141.182 11.1771 143.725 13.1605 146.353 15.4394C148.981 17.6339 151.439 19.8706 153.728 22.1495C156.017 24.344 157.839 26.4541 159.196 28.4798L148.133 39.4945C146.946 37.5532 145.251 35.4009 143.047 33.0376C140.928 30.5899 138.554 28.1844 135.926 25.8211C133.383 23.3734 130.882 21.2211 128.424 19.3642ZM127.152 95.4541C129.272 92.3312 131.56 88.7018 134.019 84.5661C136.562 80.4303 139.105 76.0413 141.648 71.3991C144.276 66.7569 146.734 62.1147 149.023 57.4725L160.467 67.3477C158.517 71.5679 156.398 75.8725 154.109 80.2615C151.821 84.6505 149.489 88.9973 147.116 93.3018C144.827 97.522 142.496 101.573 140.122 105.456L127.152 95.4541Z" fill="#F7F7F7"/>
<path d="M51.6253 38.3562H95.2398V52.2828H51.6253V38.3562ZM39.0369 62.2846H102.615V76.4644H39.0369V62.2846ZM58.8732 70.6406H74.1319V119.257H58.8732V70.6406ZM73.2419 16.3268C70.4444 20.7158 66.9688 25.358 62.8151 30.2534C58.6613 35.1488 54.0413 39.9176 48.9551 44.5598C43.9536 49.1176 38.5706 53.2112 32.8062 56.8406C31.8738 54.9837 30.5598 52.7892 28.8644 50.2571C27.2538 47.6406 25.6855 45.4883 24.1596 43.8002C28.4829 41.2681 32.6791 38.314 36.7481 34.9378C40.9018 31.4773 44.7589 27.8479 48.3193 24.0497C51.8796 20.1672 55.1009 16.2846 57.9831 12.402C60.8653 8.43506 63.2389 4.72129 65.1039 1.26074H80.1083C83.6686 6.32496 87.6952 11.3048 92.1881 16.2002C96.6809 21.0956 101.47 25.5268 106.557 29.4938C111.643 33.4608 116.687 36.6681 121.688 39.1158C120.078 41.0571 118.425 43.336 116.729 45.9525C115.034 48.4846 113.55 50.9323 112.279 53.2956C107.447 50.2571 102.572 46.6699 97.6558 42.5341C92.7391 38.3984 88.1615 34.0516 83.9229 29.4938C79.6844 24.8516 76.124 20.4626 73.2419 16.3268ZM96.2571 62.2846H111.261V92.7965C111.261 96.2571 110.88 99.0846 110.117 101.279C109.354 103.389 107.743 105.077 105.285 106.343C102.912 107.441 100.114 108.116 96.8929 108.369C93.7563 108.622 90.1112 108.749 85.9574 108.749C85.7031 106.47 85.1521 103.98 84.3044 101.279C83.5415 98.4938 82.6514 96.0461 81.6341 93.936C84.262 94.0204 86.7628 94.1048 89.1363 94.1892C91.5947 94.1892 93.2053 94.1892 93.9683 94.1892C94.9007 94.1892 95.4941 94.0626 95.7485 93.8094C96.0875 93.4718 96.2571 93.0075 96.2571 92.4167V62.2846ZM1.90734 17.3396L12.4613 6.45157C14.9196 8.05524 17.5475 9.91212 20.345 12.0222C23.2272 14.0479 25.8974 16.1158 28.3558 18.2259C30.8989 20.336 32.9334 22.2773 34.4593 24.0497L23.1424 36.4571C21.7861 34.6002 19.8787 32.5745 17.4204 30.38C15.0468 28.1011 12.5037 25.8222 9.79101 23.5433C7.07835 21.2644 4.45046 19.1965 1.90734 17.3396ZM0 100.013C2.28881 96.8057 4.78954 93.0497 7.5022 88.7452C10.2149 84.4406 12.9699 79.8828 15.7673 75.0718C18.6495 70.2608 21.3622 65.4497 23.9053 60.6387L35.3494 70.8938C33.2301 75.2828 30.9413 79.7562 28.4829 84.314C26.0246 88.8718 23.5239 93.3874 20.9807 97.8608C18.4376 102.25 15.9369 106.512 13.4785 110.648L0 100.013Z" fill="#F7F7F7"/>
</svg>
