<svg width="413" height="119" viewBox="0 0 413 119" fill="none" xmlns="http://www.w3.org/2000/svg">
<path d="M401.39 62.735L411.488 71.7689C408.434 74.8638 405.311 77.9587 402.118 81.0537C398.995 84.0649 396.149 86.6162 393.581 88.7073L386.19 81.3046C387.855 79.7153 389.591 77.8751 391.395 75.7839C393.269 73.6091 395.074 71.3925 396.809 69.134C398.613 66.7919 400.14 64.6589 401.39 62.735ZM375.883 0L390.042 2.5094C388.584 6.02256 387.023 9.41025 385.357 12.6725C383.761 15.851 382.303 18.6114 380.984 20.9535L370.365 18.0677C371.406 15.391 372.448 12.3797 373.489 9.03384C374.53 5.68797 375.328 2.67669 375.883 0ZM367.138 41.5306V48.1805H395.143V41.5306H367.138ZM367.138 24.2157V30.7402H395.143V24.2157H367.138ZM355.894 12.6725H406.907V59.7237H355.894V12.6725ZM376.091 54.7049H387.231V103.638C387.231 106.817 386.953 109.368 386.398 111.292C385.843 113.216 384.732 114.68 383.067 115.683C381.401 116.771 379.388 117.398 377.028 117.565C374.738 117.816 372.031 117.942 368.908 117.942C368.7 116.102 368.283 113.969 367.659 111.543C367.103 109.117 366.513 106.984 365.889 105.144C367.693 105.228 369.428 105.269 371.094 105.269C372.76 105.269 373.87 105.269 374.426 105.269C375.12 105.269 375.571 105.144 375.779 104.893C375.987 104.642 376.091 104.182 376.091 103.513V54.7049ZM353.188 68.1302H368.179V80.5518H353.188V68.1302ZM365.889 68.1302H367.971L369.845 67.8793L376.508 71.1415C374.773 81.2628 371.996 89.8366 368.179 96.8629C364.431 103.806 360.024 109.159 354.957 112.923C354.402 111.919 353.673 110.79 352.771 109.535C351.869 108.281 350.897 107.068 349.856 105.897C348.884 104.642 348.017 103.638 347.253 102.885C351.834 99.8742 355.756 95.5664 359.018 89.962C362.28 84.3577 364.57 77.7914 365.889 70.2632V68.1302ZM386.086 55.2068C386.849 59.3892 387.89 63.697 389.209 68.1302C390.597 72.4799 392.332 76.7459 394.414 80.9282C396.566 85.0269 399.169 88.791 402.222 92.2205C405.276 95.65 408.851 98.494 412.946 100.752C412.182 101.673 411.315 102.844 410.343 104.266C409.441 105.604 408.538 107.068 407.636 108.657C406.734 110.246 406.04 111.668 405.554 112.923C401.598 110.246 398.127 106.942 395.143 103.011C392.159 98.9959 389.625 94.6881 387.543 90.0875C385.461 85.4869 383.761 80.8864 382.442 76.2858C381.123 71.6016 380.082 67.252 379.319 63.2369L386.086 55.2068ZM328.93 0.250939L339.758 4.89333C338.369 8.15555 336.912 11.5014 335.385 14.9309C333.858 18.2768 332.366 21.539 330.908 24.7176C329.451 27.8125 328.063 30.531 326.744 32.8732L318.415 28.7326C319.665 26.1396 320.949 23.212 322.267 19.9497C323.586 16.6875 324.835 13.2998 326.015 9.78666C327.265 6.2735 328.236 3.09492 328.93 0.250939ZM340.695 15.1819L350.897 20.7026C348.329 25.3868 345.553 30.3219 342.569 35.508C339.584 40.6941 336.6 45.6711 333.615 50.439C330.631 55.2068 327.785 59.3892 325.078 62.986L317.895 58.2181C319.838 55.3741 321.851 52.1955 323.933 48.6824C326.085 45.0856 328.167 41.3633 330.18 37.5155C332.262 33.5841 334.205 29.6946 336.01 25.8468C337.814 21.9991 339.376 18.4441 340.695 15.1819ZM312.898 29.6109L319.04 19.4479C320.775 21.4554 322.58 23.6302 324.454 25.9723C326.328 28.3144 328.063 30.6565 329.659 32.9986C331.255 35.3407 332.435 37.5155 333.199 39.5231L326.536 50.9408C325.772 48.9333 324.627 46.6749 323.1 44.1655C321.643 41.6561 320.012 39.1467 318.207 36.6373C316.403 34.0442 314.633 31.7021 312.898 29.6109ZM337.155 45.1692L345.9 40.9032C347.288 43.6636 348.607 46.6749 349.856 49.9371C351.105 53.1993 352.216 56.3779 353.188 59.4728C354.159 62.4841 354.853 65.2026 355.27 67.6284L345.796 72.6472C345.518 70.2214 344.928 67.4192 344.026 64.2407C343.124 61.0621 342.083 57.8417 340.903 54.5795C339.723 51.2336 338.474 48.0969 337.155 45.1692ZM312.585 55.2068C317.236 54.9559 322.719 54.6213 329.034 54.2031C335.35 53.7012 341.77 53.1993 348.294 52.6974L348.503 64.9935C342.395 65.579 336.287 66.1645 330.18 66.7501C324.141 67.252 318.693 67.7538 313.835 68.2557L312.585 55.2068ZM340.07 76.6622L348.711 73.5255C349.96 76.955 351.036 80.6772 351.938 84.6923C352.91 88.6237 353.569 92.095 353.916 95.1063L344.651 98.6195C344.442 95.6082 343.887 92.0532 342.985 87.9545C342.152 83.8558 341.18 80.0917 340.07 76.6622ZM317.062 73.9019L327.056 76.0349C326.501 82.0574 325.668 87.9963 324.558 93.8516C323.517 99.6232 322.267 104.517 320.81 108.532C320.116 107.946 319.214 107.319 318.103 106.65C316.993 105.98 315.847 105.353 314.668 104.768C313.488 104.098 312.481 103.596 311.648 103.262C313.175 99.4978 314.355 94.9808 315.188 89.7111C316.021 84.4414 316.646 79.1716 317.062 73.9019ZM328.41 61.9822H339.237V118.067H328.41V61.9822Z" fill="#F7F7F7"/>
<path d="M231.07 18.4441H256.577V32.7477H231.07V18.4441ZM274.587 0.501874H287.601V117.816H274.587V0.501874ZM219.514 55.7087L225.865 44.4164C228.433 46.0893 231.14 48.055 233.985 50.3135C236.9 52.572 239.642 54.8304 242.21 57.0889C244.778 59.3473 246.86 61.5222 248.456 63.6133L241.689 76.2858C240.232 74.1946 238.254 71.9362 235.755 69.5104C233.256 67.001 230.584 64.5334 227.739 62.1077C224.893 59.6819 222.152 57.5489 219.514 55.7087ZM232.319 0L244.812 3.13675C243.008 11.5851 240.752 19.6988 238.045 27.4779C235.408 35.2571 232.389 42.4507 228.988 49.0588C225.657 55.5832 222.047 61.2712 218.161 66.1227C217.467 65.2026 216.46 64.157 215.142 62.986C213.892 61.7313 212.608 60.5184 211.29 59.3473C209.971 58.0926 208.791 57.1307 207.75 56.4615C211.637 52.1955 215.142 47.1349 218.265 41.2797C221.388 35.4244 224.13 28.9836 226.489 21.9573C228.849 14.8473 230.793 7.5282 232.319 0ZM268.133 30.6147C270.215 35.2153 272.713 39.774 275.628 44.2909C278.613 48.7242 281.91 52.9484 285.519 56.9634C289.128 60.9785 292.945 64.6171 296.971 67.8793C301.065 71.1415 305.195 73.9437 309.359 76.2858C308.457 77.2896 307.416 78.5861 306.236 80.1754C305.056 81.681 303.946 83.2703 302.905 84.9432C301.864 86.5325 300.996 87.9963 300.302 89.3347C295.929 86.5743 291.696 83.2703 287.601 79.4226C283.575 75.5748 279.723 71.3088 276.045 66.6246C272.366 61.9404 268.965 56.9634 265.842 51.6937C262.788 46.4239 260.047 40.9869 257.618 35.3826L268.133 30.6147ZM253.037 18.4441H255.431L257.618 17.9422L265.842 21.3299C263.76 37.4737 260.602 51.7773 256.368 64.2407C252.204 76.704 247.103 87.3272 241.065 96.1101C235.026 104.809 228.259 111.752 220.763 116.938C220.069 115.851 219.132 114.554 217.953 113.049C216.773 111.627 215.523 110.205 214.205 108.783C212.955 107.444 211.81 106.399 210.769 105.646C218.195 100.962 224.789 94.8135 230.55 87.2017C236.31 79.5062 241.099 70.2214 244.917 59.3473C248.734 48.4733 251.441 35.9681 253.037 21.8318V18.4441Z" fill="#F7F7F7"/>
<path d="M147.471 82.9362H160.381V118.068H147.471V82.9362ZM106.765 77.6665C111.832 77.6665 117.592 77.6665 124.047 77.6665C130.502 77.5828 137.373 77.4992 144.66 77.4155C151.948 77.2482 159.444 77.1228 167.148 77.0391C174.852 76.8718 182.486 76.7464 190.051 76.6627L189.427 88.5824C182 88.917 174.505 89.2097 166.939 89.4607C159.444 89.7116 152.087 89.9625 144.868 90.2135C137.72 90.3808 130.918 90.5899 124.463 90.8408C118.078 91.0081 112.317 91.1336 107.181 91.2172L106.765 77.6665ZM145.077 43.2877L156.633 48.8084C153.44 52.4052 150.039 55.8765 146.43 59.2224C142.89 62.4846 139.594 65.2449 136.54 67.5034L126.962 62.1082C128.975 60.4352 131.091 58.5532 133.312 56.462C135.603 54.2872 137.754 52.0706 139.767 49.8121C141.78 47.47 143.55 45.2952 145.077 43.2877ZM167.252 50.9413L179.536 56.9639C175.441 60.8117 171 64.5758 166.211 68.2562C161.491 71.9367 156.771 75.408 152.052 78.6702C147.332 81.9324 142.89 84.7764 138.726 87.2022L129.252 81.0542C133.486 78.5448 137.928 75.5753 142.578 72.1458C147.298 68.7163 151.809 65.1613 156.112 61.4808C160.415 57.7167 164.128 54.2036 167.252 50.9413ZM117.176 62.9865L126.129 54.2036C128.975 55.6256 131.924 57.2567 134.978 59.0969C138.101 60.8535 141.086 62.6519 143.931 64.4921C146.777 66.2487 149.241 67.8798 151.323 69.3854L142.266 79.2976C140.322 77.7083 137.893 75.9517 134.978 74.0278C132.133 72.0203 129.148 70.0546 126.025 68.1307C122.971 66.2069 120.021 64.4921 117.176 62.9865ZM166.627 99.6237L177.454 92.7229C180.161 94.3122 182.972 96.1524 185.887 98.2436C188.802 100.251 191.613 102.3 194.32 104.392C197.096 106.399 199.456 108.198 201.399 109.787L190.26 117.691C188.455 115.935 186.199 113.969 183.493 111.794C180.786 109.703 177.94 107.57 174.956 105.395C172.041 103.137 169.264 101.213 166.627 99.6237ZM128.628 92.9738L140.496 98.4945C138.414 100.92 135.95 103.346 133.104 105.772C130.328 108.198 127.448 110.456 124.463 112.547C121.548 114.638 118.737 116.479 116.031 118.068C115.267 117.148 114.261 116.018 113.011 114.68C111.832 113.425 110.582 112.171 109.264 110.916C108.014 109.745 106.904 108.783 105.932 108.03C110.096 106.19 114.261 103.932 118.425 101.255C122.589 98.5781 125.99 95.8178 128.628 92.9738ZM170.271 70.0128L180.994 64.3666C183.562 66.7924 186.234 69.5109 189.01 72.5222C191.856 75.5335 194.528 78.5448 197.027 81.556C199.525 84.5673 201.573 87.3277 203.169 89.8371L191.509 96.1106C190.121 93.6848 188.247 90.9663 185.887 87.955C183.597 84.8601 181.063 81.7652 178.287 78.6702C175.511 75.4917 172.839 72.6058 170.271 70.0128ZM134.041 11.1673H153.614V23.087H134.041V11.1673ZM157.361 0.125977H169.75V32.1208C169.75 34.1284 170.028 35.4249 170.583 36.0104C171.208 36.5123 172.561 36.7632 174.643 36.7632C175.129 36.7632 175.927 36.7632 177.038 36.7632C178.148 36.7632 179.363 36.7632 180.682 36.7632C182 36.7632 183.25 36.7632 184.429 36.7632C185.609 36.7632 186.477 36.7632 187.032 36.7632C188.212 36.7632 189.08 36.5541 189.635 36.1359C190.26 35.634 190.711 34.7139 190.988 33.3755C191.266 31.9535 191.474 29.9042 191.613 27.2275C192.862 28.2313 194.563 29.235 196.714 30.2388C198.866 31.1589 200.809 31.8281 202.544 32.2463C202.058 36.8469 201.295 40.4437 200.254 43.0367C199.213 45.5461 197.755 47.3027 195.881 48.3065C194.007 49.3102 191.474 49.8121 188.281 49.8121C187.726 49.8121 186.928 49.8121 185.887 49.8121C184.915 49.8121 183.805 49.8121 182.556 49.8121C181.306 49.8121 180.022 49.8121 178.704 49.8121C177.454 49.8121 176.309 49.8121 175.268 49.8121C174.296 49.8121 173.568 49.8121 173.082 49.8121C168.848 49.8121 165.586 49.2684 163.296 48.181C161.075 47.0936 159.513 45.2952 158.611 42.7858C157.778 40.1927 157.361 36.6796 157.361 32.2463V0.125977ZM105.516 38.5198C109.541 38.1016 114.191 37.5579 119.466 36.8887C124.81 36.1359 130.432 35.3412 136.332 34.5048C142.3 33.6683 148.235 32.8318 154.134 31.9954L154.446 43.7896C148.825 44.7933 143.133 45.7971 137.373 46.8008C131.612 47.721 126.094 48.6411 120.819 49.5612C115.614 50.3976 110.86 51.1923 106.557 51.9451L105.516 38.5198ZM190.364 6.14854L199.629 16.688C196.298 18.4446 192.689 20.0757 188.802 21.5814C184.985 23.0033 181.063 24.3417 177.038 25.5964C173.012 26.7675 169.126 27.813 165.378 28.7331C165.17 27.2275 164.684 25.4291 163.92 23.3379C163.226 21.1631 162.532 19.3647 161.838 17.9427C165.239 16.8553 168.709 15.6843 172.249 14.4296C175.789 13.1749 179.12 11.8365 182.243 10.4145C185.366 8.99253 188.073 7.57053 190.364 6.14854ZM128.94 0.125977H140.496V42.7858L128.94 43.7896V0.125977ZM111.97 9.41076H122.693V43.915L111.97 45.0443V9.41076Z" fill="#F7F7F7"/>
<path d="M37.7418 18.1932H97.2915V32.3713H37.7418V18.1932ZM53.4621 44.5419H77.6151V58.0926H53.4621V44.5419ZM61.2702 0H73.8673V23.3374H61.2702V0ZM47.632 44.5419H59.5004V69.2595C59.5004 73.2745 59.2227 77.4987 58.6675 81.9319C58.1122 86.3652 57.1406 90.7567 55.7525 95.1063C54.3644 99.4559 52.3516 103.596 49.7142 107.528C47.1462 111.459 43.78 114.931 39.6157 117.942C39.1993 116.938 38.5052 115.683 37.5336 114.178C36.5619 112.756 35.5208 111.334 34.4103 109.912C33.3692 108.49 32.467 107.444 31.7035 106.775C36.4925 103.346 39.9974 99.4978 42.2184 95.2318C44.5088 90.9658 45.9663 86.5743 46.591 82.0574C47.285 77.5405 47.632 73.1909 47.632 69.0085V44.5419ZM72.9303 44.5419H84.9027V99.2468C84.9027 100.585 84.9374 101.631 85.0068 102.384C85.0762 103.136 85.1803 103.68 85.3191 104.015C85.5968 104.433 86.0132 104.642 86.5684 104.642C86.7766 104.642 87.0543 104.642 87.4013 104.642C87.7483 104.642 88.0953 104.642 88.4424 104.642C88.9976 104.642 89.4487 104.433 89.7958 104.015C90.004 103.764 90.1775 103.346 90.3163 102.76C90.4551 102.174 90.5592 101.296 90.6286 100.125C90.7674 98.9541 90.8368 97.072 90.8368 94.479C90.9063 91.8859 90.941 88.8746 90.941 85.4451C92.1208 86.6998 93.6478 87.9127 95.5217 89.0837C97.3957 90.2548 99.1308 91.1749 100.727 91.8441C100.658 93.9352 100.554 96.1101 100.415 98.3685C100.345 100.627 100.207 102.718 99.9983 104.642C99.8595 106.482 99.6513 107.946 99.3737 109.033C99.0267 110.539 98.5408 111.836 97.9162 112.923C97.2915 114.01 96.4934 114.931 95.5217 115.683C94.7583 116.269 93.7866 116.687 92.6067 116.938C91.4268 117.273 90.2816 117.44 89.1711 117.44C88.2689 117.44 87.2278 117.44 86.0479 117.44C84.9374 117.44 83.9657 117.44 83.1329 117.44C81.8142 117.44 80.4608 117.147 79.0727 116.562C77.754 116.06 76.6088 115.265 75.6371 114.178C74.6654 113.007 73.9714 111.417 73.5549 109.41C73.1385 107.486 72.9303 104.182 72.9303 99.4978V44.5419ZM0.0546875 64.2407C3.31674 63.4042 6.99522 62.4004 11.0901 61.2294C15.2545 60.0583 19.5923 58.8036 24.1036 57.4653C28.6844 56.0433 33.2651 54.6213 37.8459 53.1993L39.3034 67.001C33.0569 69.0922 26.741 71.1415 20.3557 73.149C14.0399 75.1566 8.27922 76.9968 3.07382 78.6697L0.0546875 64.2407ZM1.82452 23.8393H37.7418V37.7665H1.82452V23.8393ZM14.9421 0.125469H27.2269V101.756C27.2269 105.437 26.8798 108.281 26.1858 110.288C25.5611 112.296 24.3465 113.927 22.542 115.182C20.8069 116.269 18.6553 116.98 16.0873 117.314C13.5193 117.649 10.3961 117.816 6.7176 117.816C6.50938 115.893 6.05825 113.592 5.36419 110.916C4.73955 108.239 4.04549 105.939 3.28204 104.015C5.29479 104.098 7.23814 104.182 9.11208 104.266C10.986 104.266 12.27 104.266 12.9641 104.266C13.6581 104.182 14.144 103.973 14.4216 103.638C14.7686 103.304 14.9421 102.718 14.9421 101.882V0.125469Z" fill="#F7F7F7"/>
</svg>
