<svg width="567" height="208" viewBox="0 0 567 208" fill="none" xmlns="http://www.w3.org/2000/svg">
<path d="M465.521 109.139V207.057H443.93V109.139H465.521Z" fill="#0642C1"/>
<path d="M430.946 109.139V126.742H378.824V148.058H426.683V164.974H378.824V189.041H431.909V207.057H357.508V109.139H430.946Z" fill="#0642C1"/>
<path d="M348.039 188.628V207.057H278.727V109.139H300.18V188.628H348.039Z" fill="#0642C1"/>
<path d="M179.539 207.057V109.139H201.406L241.7 174.738V109.139H262.329V207.057H240.875L200.305 141.32V207.057H179.539Z" fill="#0642C1"/>
<path d="M136.825 109L174.094 207.056H151.54L143.839 185.189H107.395L99.4181 207.056H77.4141L114.683 109H136.825ZM138.613 169.511L125.685 133.067L112.621 169.511H138.613Z" fill="#0642C1"/>
<path d="M0 109.139H22.4166L44.4207 177.901L66.6998 109.139H88.9789L56.3854 207.057H32.0434L0 109.139Z" fill="#0642C1"/>
<path d="M566.521 0.138672V98.0567H544.93V0.138672H566.521Z" fill="#0642C1"/>
<path d="M531.946 0.138672V17.7419H479.824V39.0583H527.683V55.9739H479.824V80.0408H532.909V98.0567H458.508V0.138672H531.946Z" fill="#0642C1"/>
<path d="M449.039 79.6283V98.0567H379.727V0.138672H401.18V79.6283H449.039Z" fill="#0642C1"/>
<path d="M280.539 98.0567V0.138672H302.406L342.7 65.7382V0.138672H363.329V98.0567H341.875L301.305 32.3196V98.0567H280.539Z" fill="#0642C1"/>
<path d="M237.825 0L275.094 98.0555H252.54L244.839 76.189H208.395L200.418 98.0555H178.414L215.683 0H237.825ZM239.613 60.5111L226.685 24.0669L213.621 60.5111H239.613Z" fill="#0642C1"/>
<path d="M101 0.138672H123.417L145.421 68.9013L167.7 0.138672H189.979L157.385 98.0567H133.043L101 0.138672Z" fill="#0642C1"/>
</svg>
