<svg width="1317" height="856" viewBox="0 0 1317 856" fill="none" xmlns="http://www.w3.org/2000/svg">
<path d="M1303.63 205.96V258.254H1106.94V-19.6074H1167.82V205.96H1303.63Z" fill="#0642C1"/>
<path d="M825.492 258.254V-19.6074H887.543L1001.89 166.544V-19.6074H1060.43V258.254H999.546L884.421 71.7122V258.254H825.492Z" fill="#0642C1"/>
<path d="M704.297 -20L810.056 258.252H746.054L724.2 196.201H620.783L598.148 258.252H535.707L641.466 -20H704.297ZM709.37 151.712L672.686 48.2946L635.612 151.712H709.37Z" fill="#0642C1"/>
<path d="M316 -19.6074H379.612L442.052 175.52L505.274 -19.6074H568.495L476.005 258.254H406.929L316 -19.6074Z" fill="#0642C1"/>
<path d="M1321 289.393V567.254H1259.73V289.393H1321Z" fill="#0642C1"/>
<path d="M1222.88 289.393V339.345H1074.97V399.835H1210.78V447.836H1074.97V516.131H1225.61V567.254H1014.48V289.393H1222.88Z" fill="#0642C1"/>
<path d="M987.626 514.96V567.254H790.938V289.393H851.817V514.96H987.626Z" fill="#0642C1"/>
<path d="M509.492 567.254V289.393H571.543L685.887 475.544V289.393H744.426V567.254H683.546L568.421 380.712V567.254H509.492Z" fill="#0642C1"/>
<path d="M388.297 289L494.056 567.252H430.054L408.2 505.201H304.783L282.148 567.252H219.707L325.466 289H388.297ZM393.37 460.712L356.686 357.295L319.612 460.712H393.37Z" fill="#0642C1"/>
<path d="M0 289.393H63.6116L126.052 484.52L189.274 289.393H252.495L160.005 567.254H90.9294L0 289.393Z" fill="#0642C1"/>
<path d="M1323.63 823.96V876.254H1126.94V598.393H1187.82V823.96H1323.63Z" fill="#0642C1"/>
<path d="M845.492 876.254V598.393H907.543L1021.89 784.544V598.393H1080.43V876.254H1019.55L904.421 689.712V876.254H845.492Z" fill="#0642C1"/>
<path d="M724.297 598L830.056 876.252H766.054L744.2 814.201H640.783L618.148 876.252H555.707L661.466 598H724.297ZM729.37 769.712L692.686 666.295L655.612 769.712H729.37Z" fill="#0642C1"/>
<path d="M336 598.393H399.612L462.052 793.52L525.274 598.393H588.495L496.005 876.254H426.929L336 598.393Z" fill="#0642C1"/>
</svg>
