<svg width="390" height="208" viewBox="0 0 390 208" fill="none" xmlns="http://www.w3.org/2000/svg">
<path d="M374.521 109.139V207.057H352.93V109.139H374.521Z" fill="#0642C1"/>
<path d="M339.946 109.139V126.742H287.824V148.058H335.683V164.974H287.824V189.041H340.909V207.057H266.508V109.139H339.946Z" fill="#0642C1"/>
<path d="M257.039 188.628V207.057H187.727V109.139H209.18V188.628H257.039Z" fill="#0642C1"/>
<path d="M88.5391 207.057V109.139H110.406L150.7 174.738V109.139H171.329V207.057H149.875L109.305 141.32V207.057H88.5391Z" fill="#0642C1"/>
<path d="M45.825 109L83.0943 207.056H60.5402L52.8388 185.189H16.3946L8.41811 207.056H-13.5859L23.6834 109H45.825ZM47.6128 169.511L34.6854 133.067L21.6205 169.511H47.6128Z" fill="#0642C1"/>
<path d="M440.946 0.138672V17.7419H388.824V39.0583H436.683V55.9739H388.824V80.0408H441.909V98.0567H367.508V0.138672H440.946Z" fill="#0642C1"/>
<path d="M358.039 79.6283V98.0567H288.727V0.138672H310.18V79.6283H358.039Z" fill="#0642C1"/>
<path d="M189.539 98.0567V0.138672H211.406L251.7 65.7382V0.138672H272.329V98.0567H250.875L210.305 32.3196V98.0567H189.539Z" fill="#0642C1"/>
<path d="M146.825 0L184.094 98.0555H161.54L153.839 76.189H117.395L109.418 98.0555H87.4141L124.683 0H146.825ZM148.613 60.5111L135.685 24.0669L122.621 60.5111H148.613Z" fill="#0642C1"/>
<path d="M10 0.138672H32.4166L54.4207 68.9013L76.6998 0.138672H98.9789L66.3854 98.0567H42.0434L10 0.138672Z" fill="#0642C1"/>
</svg>
