<svg width="1820" height="352" viewBox="0 0 1820 352" fill="none" xmlns="http://www.w3.org/2000/svg">
<path d="M1820 0.541016V383.363H1735.59V0.541016H1820Z" fill="#EEEEEE"/>
<path d="M1684.82 0.541016V69.3629H1481.04V152.702H1668.15V218.836H1481.04V312.928H1688.58V383.363H1397.7V0.541016H1684.82Z" fill="#EEEEEE"/>
<path d="M1360.7 311.315V383.363H1089.71V0.541016H1173.59V311.315H1360.7Z" fill="#EEEEEE"/>
<path d="M701.949 383.363V0.541016H787.439L944.977 257.01V0.541016H1025.63V383.363H941.751L783.138 126.356V383.363H701.949Z" fill="#EEEEEE"/>
<path d="M534.973 0L680.682 383.36H592.504L562.395 297.87H419.912L388.727 383.36H302.699L448.408 0H534.973ZM541.963 236.576L491.422 94.0925L440.343 236.576H541.963Z" fill="#EEEEEE"/>
<path d="M0 0.541016H87.6405L173.668 269.377L260.771 0.541016H347.874L220.445 383.363H125.277L0 0.541016Z" fill="#EEEEEE"/>
</svg>
