<svg width="316" height="68" viewBox="0 0 316 68" fill="none" xmlns="http://www.w3.org/2000/svg">
<path d="M316 0.544922V67.0129H301.344V0.544922H316Z" fill="#EEEEEE"/>
<path d="M292.523 0.544922V12.4942H257.142V26.9641H289.629V38.4466H257.142V54.7836H293.176V67.0129H242.672V0.544922H292.523Z" fill="#EEEEEE"/>
<path d="M236.261 54.5035V67.0129H189.211V0.544922H203.774V54.5035H236.261Z" fill="#EEEEEE"/>
<path d="M121.875 67.0129V0.544922H136.718L164.071 45.0747V0.544922H178.074V67.0129H163.511L135.971 22.3897V67.0129H121.875Z" fill="#EEEEEE"/>
<path d="M92.8914 0.451172L118.19 67.0125H102.88L97.6525 52.1693H72.9137L67.4991 67.0125H52.5625L77.8614 0.451172H92.8914ZM94.105 41.5269L85.3297 16.7881L76.4611 41.5269H94.105Z" fill="#EEEEEE"/>
<path d="M0 0.544922H15.2167L30.1533 47.2219L45.2767 0.544922H60.4L38.2751 67.0129H21.7515L0 0.544922Z" fill="#EEEEEE"/>
</svg>
