<svg width="23" height="23" viewBox="0 0 23 23" fill="none" xmlns="http://www.w3.org/2000/svg">
<g clip-path="url(#clip0_323_175)">
<path d="M11.3047 2.05508C14.2438 2.05508 14.5918 2.06797 15.7477 2.11953C16.8219 2.1668 17.402 2.34727 17.7887 2.49766C18.3 2.69531 18.6695 2.93594 19.052 3.31836C19.4387 3.70508 19.675 4.07031 19.8727 4.58164C20.023 4.96836 20.2035 5.55273 20.2508 6.62266C20.3023 7.78281 20.3152 8.13086 20.3152 11.0656C20.3152 14.0047 20.3023 14.3527 20.2508 15.5086C20.2035 16.5828 20.023 17.1629 19.8727 17.5496C19.675 18.0609 19.4344 18.4305 19.052 18.8129C18.6652 19.1996 18.3 19.4359 17.7887 19.6336C17.402 19.784 16.8176 19.9645 15.7477 20.0117C14.5875 20.0633 14.2395 20.0762 11.3047 20.0762C8.36563 20.0762 8.01758 20.0633 6.86172 20.0117C5.7875 19.9645 5.20742 19.784 4.8207 19.6336C4.30938 19.4359 3.93984 19.1953 3.55742 18.8129C3.1707 18.4262 2.93437 18.0609 2.73672 17.5496C2.58633 17.1629 2.40586 16.5785 2.35859 15.5086C2.30703 14.3484 2.29414 14.0004 2.29414 11.0656C2.29414 8.12656 2.30703 7.77852 2.35859 6.62266C2.40586 5.54844 2.58633 4.96836 2.73672 4.58164C2.93437 4.07031 3.175 3.70078 3.55742 3.31836C3.94414 2.93164 4.30938 2.69531 4.8207 2.49766C5.20742 2.34727 5.7918 2.1668 6.86172 2.11953C8.01758 2.06797 8.36563 2.05508 11.3047 2.05508ZM11.3047 0.0742188C8.31836 0.0742188 7.94453 0.0871094 6.77148 0.138672C5.60273 0.190234 4.79922 0.379297 4.10313 0.65C3.37695 0.933594 2.7625 1.30742 2.15234 1.92188C1.53789 2.53203 1.16406 3.14648 0.880469 3.86836C0.609766 4.56875 0.420703 5.36797 0.369141 6.53672C0.317578 7.71406 0.304688 8.08789 0.304688 11.0742C0.304688 14.0605 0.317578 14.4344 0.369141 15.6074C0.420703 16.7762 0.609766 17.5797 0.880469 18.2758C1.16406 19.002 1.53789 19.6164 2.15234 20.2266C2.7625 20.8367 3.37695 21.2148 4.09883 21.4941C4.79922 21.7648 5.59844 21.9539 6.76719 22.0055C7.94023 22.057 8.31406 22.0699 11.3004 22.0699C14.2867 22.0699 14.6605 22.057 15.8336 22.0055C17.0023 21.9539 17.8059 21.7648 18.502 21.4941C19.2238 21.2148 19.8383 20.8367 20.4484 20.2266C21.0586 19.6164 21.4367 19.002 21.716 18.2801C21.9867 17.5797 22.1758 16.7805 22.2273 15.6117C22.2789 14.4387 22.2918 14.0648 22.2918 11.0785C22.2918 8.09219 22.2789 7.71836 22.2273 6.54531C22.1758 5.37656 21.9867 4.57305 21.716 3.87695C21.4453 3.14648 21.0715 2.53203 20.457 1.92188C19.8469 1.31172 19.2324 0.933594 18.5105 0.654297C17.8102 0.383594 17.0109 0.194531 15.8422 0.142969C14.6648 0.0871094 14.291 0.0742188 11.3047 0.0742188Z" fill="#818991"/>
<path d="M11.3066 5.42383C8.18711 5.42383 5.65625 7.95469 5.65625 11.0742C5.65625 14.1938 8.18711 16.7246 11.3066 16.7246C14.4262 16.7246 16.957 14.1938 16.957 11.0742C16.957 7.95469 14.4262 5.42383 11.3066 5.42383ZM11.3066 14.7395C9.28281 14.7395 7.64141 13.098 7.64141 11.0742C7.64141 9.05039 9.28281 7.40898 11.3066 7.40898C13.3305 7.40898 14.9719 9.05039 14.9719 11.0742C14.9719 13.098 13.3305 14.7395 11.3066 14.7395Z" fill="#818991"/>
<path d="M18.4977 5.2C18.4977 5.93047 17.9047 6.51914 17.1785 6.51914C16.448 6.51914 15.8594 5.92617 15.8594 5.2C15.8594 4.46953 16.4523 3.88086 17.1785 3.88086C17.9047 3.88086 18.4977 4.47383 18.4977 5.2Z" fill="#818991"/>
</g>
<defs>
<clipPath id="clip0_323_175">
<rect width="22" height="22" fill="white" transform="translate(0.304688 0.0742188)"/>
</clipPath>
</defs>
</svg>
