<svg width="28" height="23" viewBox="0 0 28 23" fill="none" xmlns="http://www.w3.org/2000/svg">
<path d="M1.24977 10.0958C1.31121 10.0651 1.37268 10.0359 1.43259 10.0082C2.47402 9.52577 3.52927 9.07405 4.58298 8.62233C4.63981 8.62233 4.73502 8.55626 4.78878 8.53475C4.87019 8.49941 4.95162 8.46561 5.03303 8.43027C5.1897 8.36266 5.34638 8.29659 5.50152 8.22899C5.81487 8.09531 6.12666 7.96163 6.44001 7.82796L8.3155 7.02439C9.56582 6.48969 10.8177 5.95346 12.068 5.41876C13.3184 4.88407 14.5702 4.34784 15.8205 3.81314C17.0709 3.27845 18.3227 2.74222 19.573 2.20753C20.8234 1.67283 22.0753 1.1366 23.3256 0.601906C23.6036 0.48206 23.9047 0.303824 24.2026 0.251584C24.453 0.207026 24.6972 0.120988 24.9491 0.0733567C25.4268 -0.0172955 25.9537 -0.0541677 26.4114 0.144038C26.5696 0.21318 26.7156 0.309977 26.8369 0.431359C27.4175 1.006 27.3361 1.94939 27.2132 2.75758C26.3577 8.39031 25.5021 14.0246 24.645 19.6573C24.5283 20.4302 24.3685 21.2783 23.7587 21.7669C23.2426 22.1802 22.5084 22.2263 21.8709 22.0511C21.2335 21.8745 20.6713 21.5042 20.1199 21.14C17.8327 19.625 15.5441 18.1101 13.2569 16.5951C12.7132 16.2356 12.108 15.7654 12.1141 15.1124C12.1172 14.7191 12.3522 14.3688 12.5918 14.0569C14.5794 11.4633 17.4472 9.68096 19.5807 7.20723C19.8818 6.85845 20.1183 6.22849 19.7052 6.02721C19.4594 5.90737 19.1767 6.07023 18.9525 6.22541C16.1323 8.18443 13.3138 10.145 10.4936 12.104C9.57353 12.7432 8.6089 13.4008 7.49989 13.5575C6.50762 13.6989 5.50921 13.4223 4.54919 13.1396C3.74432 12.903 2.94095 12.6602 2.14068 12.4097C1.7152 12.2776 1.27589 12.1347 0.947181 11.8351C0.618471 11.5355 0.429566 11.0315 0.627713 10.632C0.752131 10.3816 0.993292 10.2233 1.24674 10.0943L1.24977 10.0958Z" fill="#818991"/>
</svg>
