<svg width="23" height="23" viewBox="0 0 23 23" fill="none" xmlns="http://www.w3.org/2000/svg">
<path d="M0.304688 22.0742L1.85961 16.4278C0.898288 14.7705 0.39399 12.8936 0.399243 10.9749C0.399243 4.96253 5.31614 0.0742188 11.352 0.0742188C14.2832 0.0742188 17.0358 1.20872 19.1003 3.26861C21.17 5.3285 22.3099 8.06804 22.3047 10.9801C22.3047 16.9925 17.3878 21.8808 11.3467 21.8808H11.3415C9.50812 21.8808 7.70631 21.4207 6.10411 20.5528L0.304688 22.0742ZM6.38252 18.5818L6.71347 18.7805C8.11079 19.6065 9.71299 20.0405 11.3467 20.0457H11.352C16.3687 20.0457 20.4556 15.9834 20.4556 10.9853C20.4556 8.56472 19.51 6.29047 17.7923 4.57565C16.0745 2.86082 13.7841 1.91975 11.352 1.91975C6.33525 1.91452 2.24833 5.97679 2.24833 10.9749C2.24833 12.6845 2.72637 14.3523 3.64041 15.7952L3.85578 16.1403L2.93649 19.4811L6.38252 18.5818Z" fill="#818991"/>
<path d="M0.304688 22.0742L1.85961 16.4278C0.898288 14.7705 0.39399 12.8936 0.399243 10.9749C0.399243 4.96253 5.31614 0.0742188 11.352 0.0742188C14.2832 0.0742188 17.0358 1.20872 19.1003 3.26861C21.17 5.3285 22.3099 8.06804 22.3047 10.9801C22.3047 16.9925 17.3878 21.8808 11.3467 21.8808H11.3415C9.50812 21.8808 7.70631 21.4207 6.10411 20.5528L0.304688 22.0742ZM6.38252 18.5818L6.71347 18.7805C8.11079 19.6065 9.71299 20.0405 11.3467 20.0457H11.352C16.3687 20.0457 20.4556 15.9834 20.4556 10.9853C20.4556 8.56472 19.51 6.29047 17.7923 4.57565C16.0745 2.86082 13.7841 1.91975 11.352 1.91975C6.33525 1.91452 2.24833 5.97679 2.24833 10.9749C2.24833 12.6845 2.72637 14.3523 3.64041 15.7952L3.85578 16.1403L2.93649 19.4811L6.38252 18.5818Z" fill="#818991"/>
<path fill-rule="evenodd" clip-rule="evenodd" d="M8.61523 6.41521C8.41036 5.96037 8.19498 5.94991 8.00062 5.94468C7.84302 5.93945 7.65917 5.93945 7.47531 5.93945C7.29145 5.93945 6.99728 6.00742 6.74513 6.27928C6.49298 6.55115 5.78906 7.20989 5.78906 8.55352C5.78906 9.89193 6.77139 11.1885 6.90797 11.3715C7.04455 11.5545 8.80434 14.3934 11.5832 15.486C13.8946 16.3957 14.3674 16.2127 14.8664 16.1657C15.3655 16.1186 16.4844 15.5069 16.7155 14.8691C16.9414 14.2313 16.9414 13.6876 16.8731 13.5725C16.8048 13.4575 16.621 13.3895 16.3478 13.2536C16.0746 13.1177 14.7298 12.4589 14.4777 12.3648C14.2255 12.276 14.0417 12.2289 13.8631 12.5008C13.6792 12.7726 13.1539 13.3843 12.9963 13.5673C12.8387 13.7503 12.6759 13.7712 12.4027 13.6353C12.1296 13.4993 11.247 13.2118 10.2017 12.2812C9.38744 11.5597 8.83586 10.6657 8.67827 10.3938C8.52067 10.122 8.66251 9.97558 8.79909 9.83964C8.91991 9.7194 9.07225 9.52073 9.20883 9.36388C9.34541 9.20704 9.39269 9.09202 9.48199 8.90904C9.57129 8.72605 9.52927 8.56921 9.46098 8.43327C9.39269 8.30257 8.85687 6.95371 8.61523 6.41521Z" fill="#818991"/>
</svg>
